<svg xmlns="http://www.w3.org/2000/svg" width="144" height="32" viewBox="0 0 144 32">
  <g id="Logo" transform="translate(9 3.089)">
    <rect id="Rectángulo_3121" data-name="Rectángulo 3121" width="144" height="32" transform="translate(-9 -3.089)" fill="none"/>
    <g id="MiArgentina" transform="translate(-1 1.609)">
      <path id="Path_10336" data-name="Path 10336" d="M13.792,14.786a4.268,4.268,0,0,1,.934,3.024v6.373H11.7V18.029a1.758,1.758,0,0,0-.33-1.264,1.264,1.264,0,0,0-.989-.384,2.253,2.253,0,0,0-.879.165,1.813,1.813,0,0,0-.714.55c0,.22.055.44.055.659v6.428H5.935V18.029a1.868,1.868,0,0,0-.33-1.265,1.209,1.209,0,0,0-.934-.384,2.143,2.143,0,0,0-.934.22,1.868,1.868,0,0,0-.713.661v6.923H0V14.018H2.472l.165.989H2.8A3.681,3.681,0,0,1,5.66,13.8a3.462,3.462,0,0,1,1.539.33,2.528,2.528,0,0,1,1.1.989,3.954,3.954,0,0,1,1.429-.989,4.286,4.286,0,0,1,1.649-.33,3.242,3.242,0,0,1,2.472.989" transform="translate(0 -5.98)" fill="#231f20"/>
      <path id="Path_10337" data-name="Path 10337" d="M30.235,8.487A1.429,1.429,0,0,1,29.8,7.333a1.429,1.429,0,0,1,.44-1.154,2.035,2.035,0,0,1,1.373-.384,2.035,2.035,0,0,1,1.373.384,1.429,1.429,0,0,1,.44,1.154,1.429,1.429,0,0,1-.44,1.154,2.035,2.035,0,0,1-1.373.384,2.035,2.035,0,0,1-1.373-.384m-.11,1.868h2.966V20.576H30.126Z" transform="translate(-13.421 -2.607)" fill="#231f20"/>
      <path id="Path_10338" data-name="Path 10338" d="M53.269,18.459l-1.429-4.4a.384.384,0,0,0-.33-.274H45.357a.384.384,0,0,0-.33.274l-1.429,4.4a.384.384,0,0,1-.33.274H41.016a.384.384,0,0,1-.33-.494l5.5-16.265a.384.384,0,0,1,.33-.274h3.9a.384.384,0,0,1,.33.274l5.5,16.265a.384.384,0,0,1-.33.494H53.6a.384.384,0,0,1-.33-.274M46.4,11.371h4.012a.384.384,0,0,0,.33-.494L48.763,4.724a.384.384,0,0,0-.714,0l-2.035,6.154a.384.384,0,0,0,.33.494" transform="translate(-17.922 -0.765)" fill="#37bbed"/>
      <path id="Path_10339" data-name="Path 10339" d="M72.684,9.813H74.5a.388.388,0,0,1,.384.34l.165,1.361h.165a3.617,3.617,0,0,1,1.429-1.361A4.284,4.284,0,0,1,78.617,9.7h.661a.393.393,0,0,1,.33.4v2.04a.391.391,0,0,1-.384.4h-.769a4.39,4.39,0,0,0-1.758.4,3.188,3.188,0,0,0-1.264.91.406.406,0,0,0-.055.227v8.278a.391.391,0,0,1-.384.4H72.684a.391.391,0,0,1-.384-.4V10.153a.391.391,0,0,1,.384-.4" transform="translate(-31.908 -4.369)" fill="#37bbed"/>
      <path id="Path_10340" data-name="Path 10340" d="M90,27.413l-1.7-.33a.384.384,0,0,1-.274-.384V25.05a.384.384,0,0,1,.44-.33,13.517,13.517,0,0,0,3.352.44,5.605,5.605,0,0,0,2.088-.33,2.253,2.253,0,0,0,1.209-1.047,4.066,4.066,0,0,0,.384-1.923v-.932h-.165A4.066,4.066,0,0,1,93.9,21.976a4.616,4.616,0,0,1-1.923.384A4.671,4.671,0,0,1,89.56,21.7a4.506,4.506,0,0,1-1.7-2.035A7.966,7.966,0,0,1,87.2,16.2a6.78,6.78,0,0,1,1.7-5,6.935,6.935,0,0,1,5.11-1.7,16.429,16.429,0,0,1,2.308.165l1.868.384a.384.384,0,0,1,.274.33v10.99a7.638,7.638,0,0,1-.714,3.517A4.341,4.341,0,0,1,95.6,26.863a8.9,8.9,0,0,1-3.572.659L90,27.412m4.451-7.8a2.748,2.748,0,0,0,.989-.659.384.384,0,0,0,.11-.274V12.357a.384.384,0,0,0-.274-.384l-1.429-.11a3.407,3.407,0,0,0-2.692.989,4.634,4.634,0,0,0-.879,3.132,4.618,4.618,0,0,0,.769,3.024,2.638,2.638,0,0,0,2.145.878,3.571,3.571,0,0,0,1.319-.274" transform="translate(-38.453 -3.88)" fill="#37bbed"/>
      <path id="Path_10341" data-name="Path 10341" d="M122.58,17.13H115.6a.379.379,0,0,0-.293.135.4.4,0,0,0-.091.318,4.171,4.171,0,0,0,.44,1.586,2.326,2.326,0,0,0,1.264,1.079,6.2,6.2,0,0,0,2.253.34,12.225,12.225,0,0,0,2.692-.34.376.376,0,0,1,.289.075.4.4,0,0,1,.151.265v1.586a.4.4,0,0,1-.275.4,14.2,14.2,0,0,1-3.3.4,8.452,8.452,0,0,1-3.681-.68,4.517,4.517,0,0,1-2.143-2.152,8.84,8.84,0,0,1-.714-3.854,9.134,9.134,0,0,1,.659-3.682,4.773,4.773,0,0,1,1.923-2.266A5.684,5.684,0,0,1,117.8,9.6a4.635,4.635,0,0,1,3.9,1.7,8.127,8.127,0,0,1,1.319,5.041v.453a.39.39,0,0,1-.384.4m-6.759-4.7a4.578,4.578,0,0,0-.659,2.435.39.39,0,0,0,.384.4h4.176a.39.39,0,0,0,.384-.4,4.757,4.757,0,0,0-.6-2.435,2.063,2.063,0,0,0-1.815-.85,2.17,2.17,0,0,0-1.868.849" transform="translate(-49.48 -4.322)" fill="#37bbed"/>
      <path id="Path_10342" data-name="Path 10342" d="M136.231,9.722h1.813a.389.389,0,0,1,.384.34l.165,1.02h.165a4.832,4.832,0,0,1,1.7-1.19,5.347,5.347,0,0,1,2.088-.4,4.051,4.051,0,0,1,3.077,1.19,5.212,5.212,0,0,1,1.154,3.74v7.82a.391.391,0,0,1-.384.4h-2.253a.391.391,0,0,1-.384-.4V14.594a2.605,2.605,0,0,0-.549-1.87,2.05,2.05,0,0,0-1.539-.567,3.641,3.641,0,0,0-1.483.34,3.081,3.081,0,0,0-1.154.85.4.4,0,0,0-.11.227v8.673a.391.391,0,0,1-.384.4h-2.253a.391.391,0,0,1-.384-.4V10.062a.391.391,0,0,1,.384-.4" transform="translate(-59.937 -4.274)" fill="#37bbed"/>
      <path id="Path_10343" data-name="Path 10343" d="M167.191,16.756v1.7a.385.385,0,0,1-.275.384,9.562,9.562,0,0,1-1.868.165q-4.451,0-4.451-4.506v-5.5a.384.384,0,0,0-.384-.384h-1.429a.384.384,0,0,1-.384-.384V6.59a.384.384,0,0,1,.384-.384h1.483a.384.384,0,0,0,.384-.33l.44-3.847a.384.384,0,0,1,.384-.33h1.813a.384.384,0,0,1,.384.384V5.821a.384.384,0,0,0,.384.384h2.747a.384.384,0,0,1,.384.384V8.238a.384.384,0,0,1-.384.384h-2.747a.384.384,0,0,0-.384.384v5a3.736,3.736,0,0,0,.22,1.483,1.483,1.483,0,0,0,.714.769,2.912,2.912,0,0,0,1.264.22l.989-.11a.384.384,0,0,1,.44.384" transform="translate(-69.884 -0.765)" fill="#37bbed"/>
      <path id="Path_10344" data-name="Path 10344" d="M177.993,2.873a1.539,1.539,0,0,1-.494-1.209,1.539,1.539,0,0,1,.494-1.209,2.638,2.638,0,0,1,2.857,0,1.538,1.538,0,0,1,.494,1.209,1.539,1.539,0,0,1-.494,1.209,2.638,2.638,0,0,1-2.857,0M177.938,17.6V5.785a.384.384,0,0,1,.384-.384h2.308a.384.384,0,0,1,.384.384V17.6a.384.384,0,0,1-.384.384h-2.308a.384.384,0,0,1-.384-.384" transform="translate(-78.379 -0.016)" fill="#37bbed"/>
      <path id="Path_10345" data-name="Path 10345" d="M188.631,9.722h1.813a.388.388,0,0,1,.384.34l.165,1.02h.165a4.831,4.831,0,0,1,1.7-1.19,5.4,5.4,0,0,1,2.088-.4,4.051,4.051,0,0,1,3.077,1.19,5.212,5.212,0,0,1,1.154,3.74v7.82a.391.391,0,0,1-.384.4h-2.253a.391.391,0,0,1-.384-.4V14.594a2.605,2.605,0,0,0-.55-1.87,2.05,2.05,0,0,0-1.539-.567,3.641,3.641,0,0,0-1.483.34,3.081,3.081,0,0,0-1.154.85.4.4,0,0,0-.11.227v8.673a.391.391,0,0,1-.384.4h-2.253a.391.391,0,0,1-.384-.4V10.062a.391.391,0,0,1,.384-.4" transform="translate(-82.833 -4.274)" fill="#37bbed"/>
      <path id="Path_10346" data-name="Path 10346" d="M219.864,10.007a3.391,3.391,0,0,1,1.758,1.642,6.744,6.744,0,0,1,.6,3.057v7.535a.39.39,0,0,1-.384.4h-1.813a.388.388,0,0,1-.384-.34l-.165-1.019h-.165a3.539,3.539,0,0,1-1.429,1.189,4.763,4.763,0,0,1-1.977.4,4.712,4.712,0,0,1-2.143-.453,3.22,3.22,0,0,1-1.373-1.246,3.77,3.77,0,0,1-.494-1.926,3.386,3.386,0,0,1,1.209-2.775,7.1,7.1,0,0,1,3.791-1.189l2.363-.227v-.51a3.254,3.254,0,0,0-.33-1.529,1.716,1.716,0,0,0-.934-.793,5.234,5.234,0,0,0-1.758-.227l-1.649.113-1.264.283a.375.375,0,0,1-.325-.049.4.4,0,0,1-.169-.29v-1.7a.393.393,0,0,1,.274-.34l1.649-.34,1.977-.17a8.179,8.179,0,0,1,3.077.51m-1.7,10.422a2.97,2.97,0,0,0,.989-.736.4.4,0,0,0,.11-.283V17.258a.39.39,0,0,0-.384-.4l-1.649.17a3.122,3.122,0,0,0-1.7.566,1.609,1.609,0,0,0-.55,1.3,1.67,1.67,0,0,0,.494,1.3,2.046,2.046,0,0,0,1.429.453,3.32,3.32,0,0,0,1.319-.283" transform="translate(-93.462 -4.278)" fill="#37bbed"/>
      <rect id="Rectangle_1912" data-name="Rectangle 1912" width="128.473" height="23.659" transform="translate(0.004)" fill="rgba(0,0,0,0)"/>
    </g>
  </g>
</svg>
