<svg xmlns="http://www.w3.org/2000/svg" xmlns:xlink="http://www.w3.org/1999/xlink" width="144" height="32" viewBox="0 0 144 32">
  <defs>
    <clipPath id="clip-path">
      <path id="Trazado_2616" data-name="Trazado 2616" d="M0,0H22.788V21.854H0ZM0,0"/>
    </clipPath>
    <clipPath id="clip-path-2">
      <path id="Trazado_2619" data-name="Trazado 2619" d="M228,0h21.621V18.435H228Zm0,0" transform="translate(-228)"/>
    </clipPath>
  </defs>
  <g id="Logo" transform="translate(-440 -135.634)">
    <rect id="Rectángulo_3123" data-name="Rectángulo 3123" width="144" height="32" transform="translate(440 135.634)" fill="none"/>
    <g id="Logo-2" data-name="Logo" transform="translate(474 143.852)">
      <g id="Grupo_2998" data-name="Grupo 2998" transform="translate(-2 -3.003)" clip-path="url(#clip-path)">
        <path id="Trazado_2615" data-name="Trazado 2615" d="M11.671,20.562c-.041.1-.224.1-.279.1H1.206L9.944,1.491a.372.372,0,0,1,.394-.245h4.469a.306.306,0,0,1,.267.165l2.4,5.508.049.113a.452.452,0,0,1,.047.179.524.524,0,0,1-.056.2l-.015.031c-.226.516-4.132,9.3-5.415,12.189Zm9.941-4.2a.738.738,0,0,1-.133.452.666.666,0,0,1-.531.292l-6.466,0,3.766-8.474,1.807,4c.9,2,1.458,3.229,1.464,3.241a1.418,1.418,0,0,1,.093.485M18.53,6.432,16.124.913A1.53,1.53,0,0,0,14.807,0H10.338A1.557,1.557,0,0,0,8.9.981L.115,20.26A1.2,1.2,0,0,0,.16,21.376a1.049,1.049,0,0,0,.918.475H11.392a1.405,1.405,0,0,0,1.339-.8l1.223-2.758,6.94-.008.081,0a1.808,1.808,0,0,0,1.447-.787,2.188,2.188,0,0,0,.18-2.047" transform="translate(0 0.003)" fill="#0076a9"/>
      </g>
      <path id="Trazado_2617" data-name="Trazado 2617" d="M187.541,1.216a.239.239,0,0,1,.18.08.785.785,0,0,1,.155.533l0,14.585a.529.529,0,0,1-.45.586h-8.444c-.117,0-.333-.256-.333-.619V1.816a.727.727,0,0,1,.123-.5.374.374,0,0,1,.28-.093ZM187.532,0h-8.493a1.537,1.537,0,0,0-1.112.51,1.851,1.851,0,0,0-.443,1.262V16.381a1.7,1.7,0,0,0,1.493,1.8h8.444a1.694,1.694,0,0,0,1.607-1.769l.007-14.586a1.887,1.887,0,0,0-.5-1.369A1.4,1.4,0,0,0,187.532,0" transform="translate(-134.04 -3)" fill="#0076a9"/>
      <g id="Grupo_2999" data-name="Grupo 2999" transform="translate(56.379 -3.003)" clip-path="url(#clip-path-2)">
        <path id="Trazado_2618" data-name="Trazado 2618" d="M238.9,16.413a.632.632,0,0,1-.578.578h-8.2a.371.371,0,0,1-.288-.106.76.76,0,0,1-.166-.51V1.917a.655.655,0,0,1,.738-.713h1.358c2.237,0,6.461,0,6.58,0h.031a.549.549,0,0,0,.083-.005h.444Zm9.944-14.589a1.249,1.249,0,0,1-.115.5l-3.877,8.788a1.627,1.627,0,0,1-1.568.882L240.06,12l.007-10.8h8.2a.636.636,0,0,1,.491.259.741.741,0,0,1,.091.362m.9-.978A1.754,1.754,0,0,0,248.294,0H230.41a1.829,1.829,0,0,0-1.894,1.921V16.375a1.941,1.941,0,0,0,.5,1.347,1.494,1.494,0,0,0,1.1.457h8.2a1.778,1.778,0,0,0,1.733-1.766l0-3.23,3.229,0a2.772,2.772,0,0,0,2.619-1.573l3.883-8.795a2.143,2.143,0,0,0-.047-1.965" transform="translate(-228.384 0.003)" fill="#0076a9"/>
      </g>
      <path id="Trazado_2620" data-name="Trazado 2620" d="M96.128,1.78c0-.448.167-.6.658-.6l2.693.01,5.472.02h.406l0,15.236a.526.526,0,0,1-.448.579H96.457c-.187,0-.329-.206-.329-.479ZM108.07,11.994h-1.558l0-4.833h3.9a.194.194,0,0,1,.158.093.235.235,0,0,1,.036.135.393.393,0,0,1-.028.147l-.024.061c-.321.8-1.124,2.776-1.65,3.852-.267.545-.267.545-.836.545m5.262-10.618a.215.215,0,0,1-.011.078L111.7,5.042c-.4.957-.437.957-1.35.957h-3.832l.005-4.791h6.656a.133.133,0,0,1,.132.067.173.173,0,0,1,.024.1M113.268,0H96.786A1.69,1.69,0,0,0,94.965,1.78V16.544a1.57,1.57,0,0,0,1.492,1.667h8.449a1.692,1.692,0,0,0,1.605-1.767l0-3.289h1.428a3.6,3.6,0,0,0,1.268-.12,1.147,1.147,0,0,0,.538-.57l1.581-3.589c.025-.068.078-.177.146-.317.08-.164.18-.367.283-.606.081-.184.174-.391.272-.607l.305-.68c.107-.239.212-.48.328-.725.051-.109.1-.223.151-.337.064-.147.128-.293.194-.428L114.471,1.9a1.367,1.367,0,0,0-.086-1.274A1.324,1.324,0,0,0,113.268,0" transform="translate(-72.649 -3)" fill="#0076a9"/>
    </g>
  </g>
</svg>
