<svg xmlns="http://www.w3.org/2000/svg" width="195.903" height="66.402" viewBox="0 0 195.903 66.402">
  <g id="Grupo_984" data-name="Grupo 984" transform="translate(-570.991 -805.994)">
    <path id="Trazado_265" data-name="Trazado 265" d="M9.1-32.823v6.884h1.687v-9.6h-1.8L6.068-31,3.147-35.539H1.35v9.6H3.009V-32.8l3,4.5h.055Zm5.513-1.467v-1.577H12.824v1.577Zm-.05,8.352V-33.18H12.9v7.241Zm3.566-4.087a1.837,1.837,0,0,1,.457-1.323,1.554,1.554,0,0,1,1.179-.473,1.445,1.445,0,0,1,1.146.457,1.92,1.92,0,0,1,.395,1.311v4.114h1.659v-4.608a2.939,2.939,0,0,0-.672-2.03,2.42,2.42,0,0,0-1.906-.754,2.6,2.6,0,0,0-.762.1,2.527,2.527,0,0,0-.617.282,2.537,2.537,0,0,0-.494.4,4.049,4.049,0,0,0-.39.486V-33.18H16.463v7.241h1.659Zm8.393-4.265v-1.577H24.737v1.577Zm-.059,8.352V-33.18H24.8v7.241Zm7.076-2.139v-.027a1.6,1.6,0,0,0-.206-.837,2.011,2.011,0,0,0-.528-.583,3.332,3.332,0,0,0-.72-.405q-.4-.165-.8-.288-.315-.091-.61-.2a4.067,4.067,0,0,1-.521-.219,1.351,1.351,0,0,1-.366-.261.472.472,0,0,1-.137-.336v-.027a.632.632,0,0,1,.267-.521,1.2,1.2,0,0,1,.748-.206,3.036,3.036,0,0,1,.987.183,5.537,5.537,0,0,1,1.056.5l.658-1.179a4.963,4.963,0,0,0-1.28-.6,4.608,4.608,0,0,0-1.385-.219,3.3,3.3,0,0,0-1.006.151,2.449,2.449,0,0,0-.823.439,2.052,2.052,0,0,0-.549.7,2.084,2.084,0,0,0-.2.919v.027a1.693,1.693,0,0,0,.206.871,1.978,1.978,0,0,0,.528.59,2.912,2.912,0,0,0,.731.391q.405.151.8.274l.61.183a3.1,3.1,0,0,1,.521.206,1.174,1.174,0,0,1,.357.268.528.528,0,0,1,.13.357v.027a.667.667,0,0,1-.294.57,1.4,1.4,0,0,1-.83.212,3.368,3.368,0,0,1-1.173-.226,4.824,4.824,0,0,1-1.2-.665l-.741,1.125a5.075,5.075,0,0,0,1.488.809,4.875,4.875,0,0,0,1.584.274,3.755,3.755,0,0,0,1.057-.143,2.553,2.553,0,0,0,.858-.425,1.957,1.957,0,0,0,.57-.707A2.276,2.276,0,0,0,33.537-28.078Zm3.291-3.675h1.947V-33.18H36.828v-1.989H35.169v1.989H34.25v1.426h.919v3.812a2.909,2.909,0,0,0,.151,1.006,1.583,1.583,0,0,0,.432.651,1.7,1.7,0,0,0,.666.357,3.035,3.035,0,0,0,.837.11,3.178,3.178,0,0,0,.823-.091,2.883,2.883,0,0,0,.672-.274v-1.36a2.272,2.272,0,0,1-1.029.247.943.943,0,0,1-.658-.212.9.9,0,0,1-.233-.693Zm4.416,2.784h5.321q.014-.123.02-.233t.006-.219a5.054,5.054,0,0,0-.219-1.495,3.69,3.69,0,0,0-.652-1.248,3.116,3.116,0,0,0-1.08-.85,3.439,3.439,0,0,0-1.515-.315,3.322,3.322,0,0,0-1.426.3,3.544,3.544,0,0,0-1.117.816,3.686,3.686,0,0,0-.731,1.2,4.1,4.1,0,0,0-.261,1.467A3.982,3.982,0,0,0,39.878-28a3.566,3.566,0,0,0,.788,1.189,3.557,3.557,0,0,0,1.179.768,3.862,3.862,0,0,0,1.463.274,3.721,3.721,0,0,0,1.721-.37,4.007,4.007,0,0,0,1.234-.986L45.29-28a3.474,3.474,0,0,1-.891.645,2.428,2.428,0,0,1-1.07.219,2.058,2.058,0,0,1-1.371-.474,2.186,2.186,0,0,1-.713-1.364Zm-.014-1.1a2.385,2.385,0,0,1,.61-1.379,1.673,1.673,0,0,1,1.269-.528,1.712,1.712,0,0,1,.731.151,1.757,1.757,0,0,1,.556.4,1.914,1.914,0,0,1,.366.6,2.834,2.834,0,0,1,.178.748ZM49.664-28.7a4.016,4.016,0,0,1,.183-1.254,2.416,2.416,0,0,1,.507-.9,2.1,2.1,0,0,1,.782-.535,2.709,2.709,0,0,1,1-.178h.091v-1.755a2.332,2.332,0,0,0-1.591.453,3.189,3.189,0,0,0-.974,1.317V-33.18H48v7.241h1.659Zm5.554-5.6v-1.577H53.436v1.577Zm-.055,8.352V-33.18H53.509v7.241Zm9.229-3.62a3.749,3.749,0,0,0-.288-1.467,3.711,3.711,0,0,0-.8-1.2,3.748,3.748,0,0,0-1.221-.809,3.965,3.965,0,0,0-1.542-.3,3.887,3.887,0,0,0-1.542.3,3.84,3.84,0,0,0-1.221.816,3.784,3.784,0,0,0-.809,1.207,3.724,3.724,0,0,0-.3,1.475,3.7,3.7,0,0,0,.288,1.463,3.731,3.731,0,0,0,.8,1.193,3.748,3.748,0,0,0,1.221.809,3.931,3.931,0,0,0,1.53.293,3.936,3.936,0,0,0,1.55-.3,3.818,3.818,0,0,0,1.23-.816,3.805,3.805,0,0,0,.809-1.2,3.674,3.674,0,0,0,.293-1.467Zm-1.659.027a2.627,2.627,0,0,1-.151.9,2.165,2.165,0,0,1-.439.731,2.121,2.121,0,0,1-.692.5,2.168,2.168,0,0,1-.914.183,2.1,2.1,0,0,1-.884-.183,2.2,2.2,0,0,1-.7-.5,2.257,2.257,0,0,1-.457-.748,2.54,2.54,0,0,1-.165-.914,2.628,2.628,0,0,1,.151-.9,2.165,2.165,0,0,1,.439-.731,2.121,2.121,0,0,1,.692-.5,2.133,2.133,0,0,1,.9-.183,2.133,2.133,0,0,1,.9.183,2.149,2.149,0,0,1,.7.507,2.355,2.355,0,0,1,.457.747A2.485,2.485,0,0,1,62.734-29.532ZM76.79-25.939V-35.95H75.131v3.895a4.042,4.042,0,0,0-.987-.891,2.662,2.662,0,0,0-1.481-.384,3.317,3.317,0,0,0-1.255.247,3.072,3.072,0,0,0-1.077.732,3.672,3.672,0,0,0-.747,1.189,4.277,4.277,0,0,0-.282,1.6,4.186,4.186,0,0,0,.288,1.609,3.765,3.765,0,0,0,.754,1.189,3.088,3.088,0,0,0,1.07.731,3.266,3.266,0,0,0,1.248.247,2.6,2.6,0,0,0,1.475-.4,3.755,3.755,0,0,0,.994-.96v1.207Zm-1.632-3.62a2.548,2.548,0,0,1-.171.96,2.351,2.351,0,0,1-.457.731,1.974,1.974,0,0,1-.672.473,2,2,0,0,1-.8.165,1.984,1.984,0,0,1-.8-.165,2.039,2.039,0,0,1-.666-.466,2.162,2.162,0,0,1-.453-.731,2.7,2.7,0,0,1-.165-.967,2.742,2.742,0,0,1,.165-.981,2.162,2.162,0,0,1,.453-.731,1.953,1.953,0,0,1,.666-.457,2.058,2.058,0,0,1,.8-.157,2,2,0,0,1,.8.165,1.974,1.974,0,0,1,.672.473,2.351,2.351,0,0,1,.457.731A2.548,2.548,0,0,1,75.159-29.559Zm4.7.59h5.321q.014-.123.021-.233t.006-.219a5.054,5.054,0,0,0-.219-1.495,3.69,3.69,0,0,0-.651-1.248,3.117,3.117,0,0,0-1.083-.85,3.439,3.439,0,0,0-1.516-.315,3.322,3.322,0,0,0-1.426.3,3.544,3.544,0,0,0-1.117.816,3.686,3.686,0,0,0-.731,1.2,4.1,4.1,0,0,0-.261,1.467A3.982,3.982,0,0,0,78.494-28a3.566,3.566,0,0,0,.789,1.189,3.557,3.557,0,0,0,1.179.768,3.862,3.862,0,0,0,1.463.274,3.721,3.721,0,0,0,1.721-.37,4.007,4.007,0,0,0,1.236-.986L83.908-28a3.474,3.474,0,0,1-.891.645,2.428,2.428,0,0,1-1.07.219,2.058,2.058,0,0,1-1.371-.474A2.186,2.186,0,0,1,79.862-28.97Zm-.014-1.1a2.385,2.385,0,0,1,.611-1.379,1.673,1.673,0,0,1,1.268-.528,1.712,1.712,0,0,1,.731.151,1.758,1.758,0,0,1,.555.4,1.914,1.914,0,0,1,.366.6,2.834,2.834,0,0,1,.178.748ZM10.195-15.522a4.818,4.818,0,0,0-.366-1.893,4.471,4.471,0,0,0-1.053-1.522,4.874,4.874,0,0,0-1.618-1.006,5.675,5.675,0,0,0-2.063-.366H1.514v9.6H5.093a5.577,5.577,0,0,0,2.063-.37,4.964,4.964,0,0,0,1.618-1.015,4.455,4.455,0,0,0,1.049-1.529A4.868,4.868,0,0,0,10.195-15.522Zm-1.769.027a3.474,3.474,0,0,1-.24,1.309,3.041,3.041,0,0,1-.672,1.029,3,3,0,0,1-1.049.672,3.755,3.755,0,0,1-1.371.24H3.2v-6.527H5.094a3.663,3.663,0,0,1,1.371.247,3.029,3.029,0,0,1,1.049.686A3.116,3.116,0,0,1,8.186-16.8a3.474,3.474,0,0,1,.235,1.31Zm4.622,1.755h5.321q.014-.123.021-.233t.006-.219a5.054,5.054,0,0,0-.219-1.495,3.69,3.69,0,0,0-.651-1.248,3.117,3.117,0,0,0-1.083-.85,3.439,3.439,0,0,0-1.516-.315,3.323,3.323,0,0,0-1.426.3,3.545,3.545,0,0,0-1.117.816,3.686,3.686,0,0,0-.731,1.2,4.1,4.1,0,0,0-.261,1.467,3.982,3.982,0,0,0,.288,1.543,3.566,3.566,0,0,0,.789,1.189,3.557,3.557,0,0,0,1.179.768,3.862,3.862,0,0,0,1.463.274,3.721,3.721,0,0,0,1.721-.37,4.007,4.007,0,0,0,1.236-.986l-.974-.864a3.474,3.474,0,0,1-.891.645,2.428,2.428,0,0,1-1.07.219,2.058,2.058,0,0,1-1.371-.474A2.186,2.186,0,0,1,13.047-13.739Zm-.014-1.1a2.385,2.385,0,0,1,.611-1.379,1.673,1.673,0,0,1,1.268-.528,1.711,1.711,0,0,1,.731.151,1.758,1.758,0,0,1,.555.4,1.913,1.913,0,0,1,.366.6,2.835,2.835,0,0,1,.178.748Zm11.945,1.989v-.027a1.6,1.6,0,0,0-.206-.837,2.012,2.012,0,0,0-.528-.583,3.332,3.332,0,0,0-.72-.405q-.4-.165-.8-.288-.315-.091-.61-.2a4.068,4.068,0,0,1-.521-.219,1.351,1.351,0,0,1-.366-.261A.472.472,0,0,1,21.1-16v-.027a.632.632,0,0,1,.267-.521,1.2,1.2,0,0,1,.748-.206,3.036,3.036,0,0,1,.987.183,5.537,5.537,0,0,1,1.056.5l.658-1.179a4.963,4.963,0,0,0-1.275-.6,4.608,4.608,0,0,0-1.385-.219,3.3,3.3,0,0,0-1.006.151,2.449,2.449,0,0,0-.823.439,2.052,2.052,0,0,0-.549.7,2.084,2.084,0,0,0-.2.921v.027a1.693,1.693,0,0,0,.206.871,1.977,1.977,0,0,0,.528.59,2.912,2.912,0,0,0,.727.391q.405.151.8.274l.611.183a3.1,3.1,0,0,1,.521.206,1.174,1.174,0,0,1,.357.268.528.528,0,0,1,.13.357v.027a.667.667,0,0,1-.294.57,1.4,1.4,0,0,1-.83.212,3.368,3.368,0,0,1-1.173-.226,4.825,4.825,0,0,1-1.2-.665l-.741,1.125a5.075,5.075,0,0,0,1.488.809,4.875,4.875,0,0,0,1.584.274,3.755,3.755,0,0,0,1.056-.144,2.552,2.552,0,0,0,.858-.425,1.957,1.957,0,0,0,.569-.707A2.275,2.275,0,0,0,24.978-12.847Zm7.5,2.139V-15a3.1,3.1,0,0,0-.782-2.256,3.215,3.215,0,0,0-2.4-.8,6.1,6.1,0,0,0-1.522.165,7.636,7.636,0,0,0-1.234.439l.457,1.33a7.188,7.188,0,0,1,.974-.329,4.421,4.421,0,0,1,1.1-.123,1.965,1.965,0,0,1,1.324.4,1.441,1.441,0,0,1,.457,1.152v.183a6.76,6.76,0,0,0-.885-.219,6.461,6.461,0,0,0-1.117-.082A4.552,4.552,0,0,0,27.671-15a2.743,2.743,0,0,0-.933.432,2,2,0,0,0-.611.731,2.273,2.273,0,0,0-.219,1.029v.027a2.1,2.1,0,0,0,.212.967,2.112,2.112,0,0,0,.562.7,2.433,2.433,0,0,0,.816.425,3.328,3.328,0,0,0,.987.144,2.983,2.983,0,0,0,1.4-.3,3.1,3.1,0,0,0,.946-.741v.883Zm-1.6-2.619a1.349,1.349,0,0,1-.144.624,1.4,1.4,0,0,1-.405.48,1.966,1.966,0,0,1-.61.309,2.532,2.532,0,0,1-.762.11,1.731,1.731,0,0,1-.995-.274.9.9,0,0,1-.4-.8V-12.9a.986.986,0,0,1,.439-.864,2.132,2.132,0,0,1,1.221-.3,4.869,4.869,0,0,1,.914.082,4.247,4.247,0,0,1,.748.206Zm4.978-.137a4.016,4.016,0,0,1,.178-1.254,2.416,2.416,0,0,1,.507-.9,2.1,2.1,0,0,1,.782-.535,2.709,2.709,0,0,1,1.006-.178h.091v-1.755a2.332,2.332,0,0,0-1.591.453,3.189,3.189,0,0,0-.974,1.317v-1.632H34.194v7.241h1.655Zm5.4,0a4.017,4.017,0,0,1,.178-1.254,2.417,2.417,0,0,1,.507-.9,2.1,2.1,0,0,1,.782-.535,2.709,2.709,0,0,1,1.006-.178h.091v-1.755a2.332,2.332,0,0,0-1.591.453,3.189,3.189,0,0,0-.974,1.317v-1.632H39.6v7.241h1.659Zm10.82-.864a3.749,3.749,0,0,0-.288-1.467,3.712,3.712,0,0,0-.8-1.2,3.748,3.748,0,0,0-1.221-.809,3.965,3.965,0,0,0-1.542-.3,3.887,3.887,0,0,0-1.542.3,3.84,3.84,0,0,0-1.221.816,3.784,3.784,0,0,0-.809,1.207,3.723,3.723,0,0,0-.3,1.475,3.7,3.7,0,0,0,.288,1.463,3.732,3.732,0,0,0,.8,1.193,3.748,3.748,0,0,0,1.221.809,3.931,3.931,0,0,0,1.529.293,3.936,3.936,0,0,0,1.554-.3,3.818,3.818,0,0,0,1.227-.816,3.805,3.805,0,0,0,.809-1.2,3.675,3.675,0,0,0,.3-1.467Zm-1.659.027a2.628,2.628,0,0,1-.151.9,2.164,2.164,0,0,1-.439.731,2.121,2.121,0,0,1-.693.5,2.168,2.168,0,0,1-.914.183,2.1,2.1,0,0,1-.884-.183,2.2,2.2,0,0,1-.7-.5,2.258,2.258,0,0,1-.457-.748,2.54,2.54,0,0,1-.165-.914,2.627,2.627,0,0,1,.151-.9,2.165,2.165,0,0,1,.439-.731,2.121,2.121,0,0,1,.693-.5,2.133,2.133,0,0,1,.9-.183,2.133,2.133,0,0,1,.9.183,2.15,2.15,0,0,1,.7.507,2.354,2.354,0,0,1,.457.747A2.485,2.485,0,0,1,50.418-14.3Zm4.841,3.593V-20.719H53.6v10.011Zm3.657,0V-20.719H57.261v10.011Zm9.234-3.62a3.748,3.748,0,0,0-.288-1.467,3.712,3.712,0,0,0-.8-1.2,3.749,3.749,0,0,0-1.221-.809,3.965,3.965,0,0,0-1.542-.3,3.887,3.887,0,0,0-1.542.3,3.84,3.84,0,0,0-1.221.816,3.784,3.784,0,0,0-.809,1.207A3.724,3.724,0,0,0,60.43-14.3a3.7,3.7,0,0,0,.288,1.463,3.733,3.733,0,0,0,.8,1.193,3.748,3.748,0,0,0,1.221.809,3.931,3.931,0,0,0,1.53.3,3.936,3.936,0,0,0,1.554-.3,3.818,3.818,0,0,0,1.227-.816,3.8,3.8,0,0,0,.809-1.2,3.675,3.675,0,0,0,.289-1.47ZM66.49-14.3a2.628,2.628,0,0,1-.151.9,2.164,2.164,0,0,1-.439.731,2.121,2.121,0,0,1-.693.5,2.168,2.168,0,0,1-.914.183,2.1,2.1,0,0,1-.884-.183,2.2,2.2,0,0,1-.7-.5,2.258,2.258,0,0,1-.457-.748,2.54,2.54,0,0,1-.165-.914,2.627,2.627,0,0,1,.151-.9,2.166,2.166,0,0,1,.439-.731,2.121,2.121,0,0,1,.693-.5,2.133,2.133,0,0,1,.9-.183,2.133,2.133,0,0,1,.9.183,2.151,2.151,0,0,1,.7.507,2.354,2.354,0,0,1,.457.747,2.485,2.485,0,0,1,.167.909Zm14.564-2.784a3.335,3.335,0,0,0-.253-1.33,2.875,2.875,0,0,0-.727-1.015,3.224,3.224,0,0,0-1.152-.651,4.774,4.774,0,0,0-1.516-.227H73.622v9.6h1.687v-3.086h1.906a5.12,5.12,0,0,0,1.495-.213,3.669,3.669,0,0,0,1.221-.624,2.926,2.926,0,0,0,.823-1.029,3.209,3.209,0,0,0,.3-1.426Zm-1.714.041a1.566,1.566,0,0,1-.555,1.255,2.262,2.262,0,0,1-1.516.473H75.308v-3.456h1.957a2.414,2.414,0,0,1,1.509.432,1.532,1.532,0,0,1,.567,1.3Zm4.649,3.579a4.016,4.016,0,0,1,.178-1.254,2.416,2.416,0,0,1,.507-.9,2.1,2.1,0,0,1,.782-.535,2.709,2.709,0,0,1,1.006-.178h.091v-1.755a2.332,2.332,0,0,0-1.591.453,3.189,3.189,0,0,0-.974,1.317v-1.632H82.33v7.241h1.659Zm10.82-.864a3.749,3.749,0,0,0-.288-1.467,3.712,3.712,0,0,0-.8-1.2A3.748,3.748,0,0,0,92.5-17.8a3.965,3.965,0,0,0-1.542-.3,3.887,3.887,0,0,0-1.542.3,3.84,3.84,0,0,0-1.221.816,3.784,3.784,0,0,0-.809,1.207A3.724,3.724,0,0,0,87.09-14.3a3.7,3.7,0,0,0,.288,1.463,3.732,3.732,0,0,0,.8,1.193,3.748,3.748,0,0,0,1.221.809,3.931,3.931,0,0,0,1.53.3,3.936,3.936,0,0,0,1.554-.3,3.818,3.818,0,0,0,1.227-.816,3.805,3.805,0,0,0,.809-1.2,3.676,3.676,0,0,0,.289-1.47ZM93.15-14.3a2.627,2.627,0,0,1-.151.9,2.164,2.164,0,0,1-.439.731,2.121,2.121,0,0,1-.693.5,2.168,2.168,0,0,1-.914.183,2.1,2.1,0,0,1-.884-.183,2.2,2.2,0,0,1-.7-.5,2.258,2.258,0,0,1-.457-.748,2.539,2.539,0,0,1-.165-.914,2.628,2.628,0,0,1,.151-.9,2.165,2.165,0,0,1,.439-.731,2.121,2.121,0,0,1,.693-.5,2.133,2.133,0,0,1,.9-.183,2.133,2.133,0,0,1,.9.183,2.151,2.151,0,0,1,.7.507,2.355,2.355,0,0,1,.457.747,2.484,2.484,0,0,1,.167.909Zm10.2,3.593V-20.719h-1.659v3.895a4.041,4.041,0,0,0-.987-.891,2.662,2.662,0,0,0-1.481-.384,3.318,3.318,0,0,0-1.254.247,3.072,3.072,0,0,0-1.077.731,3.671,3.671,0,0,0-.748,1.189,4.277,4.277,0,0,0-.281,1.6,4.185,4.185,0,0,0,.288,1.609,3.766,3.766,0,0,0,.754,1.189,3.088,3.088,0,0,0,1.07.731,3.266,3.266,0,0,0,1.248.247,2.6,2.6,0,0,0,1.475-.4,3.755,3.755,0,0,0,.994-.96v1.2Zm-1.632-3.62a2.548,2.548,0,0,1-.171.96,2.352,2.352,0,0,1-.457.731,1.974,1.974,0,0,1-.672.473,2,2,0,0,1-.8.165,1.984,1.984,0,0,1-.8-.165,2.039,2.039,0,0,1-.665-.466,2.162,2.162,0,0,1-.457-.731,2.7,2.7,0,0,1-.165-.967,2.743,2.743,0,0,1,.165-.981,2.162,2.162,0,0,1,.457-.731,1.953,1.953,0,0,1,.665-.457,2.058,2.058,0,0,1,.8-.157,2,2,0,0,1,.8.165,1.974,1.974,0,0,1,.672.473,2.351,2.351,0,0,1,.457.731,2.549,2.549,0,0,1,.171.959Zm8.2.466a1.837,1.837,0,0,1-.453,1.326,1.554,1.554,0,0,1-1.179.473,1.445,1.445,0,0,1-1.146-.457,1.92,1.92,0,0,1-.4-1.31v-4.114h-1.659v4.608a2.939,2.939,0,0,0,.672,2.03,2.42,2.42,0,0,0,1.906.754,2.326,2.326,0,0,0,1.371-.377,3.541,3.541,0,0,0,.891-.9v1.121h1.659v-7.241h-1.659Zm9.792,1.966-1-.987a3.979,3.979,0,0,1-.844.651,2.057,2.057,0,0,1-1.036.254,2.054,2.054,0,0,1-.878-.183,2.143,2.143,0,0,1-.686-.5,2.242,2.242,0,0,1-.445-.741,2.621,2.621,0,0,1-.158-.919,2.525,2.525,0,0,1,.158-.9,2.394,2.394,0,0,1,.432-.731,2.031,2.031,0,0,1,.658-.5,1.9,1.9,0,0,1,.837-.183,2.067,2.067,0,0,1,1.062.254,3.841,3.841,0,0,1,.816.651l1.029-1.122a4.032,4.032,0,0,0-1.189-.905,3.772,3.772,0,0,0-1.707-.343,3.719,3.719,0,0,0-1.5.3,3.662,3.662,0,0,0-1.193.823,3.812,3.812,0,0,0-.782,1.207,3.83,3.83,0,0,0-.281,1.467,3.778,3.778,0,0,0,.281,1.463,3.749,3.749,0,0,0,.782,1.193,3.645,3.645,0,0,0,1.189.809,3.749,3.749,0,0,0,1.495.293,3.587,3.587,0,0,0,1.737-.378A4.558,4.558,0,0,0,119.714-11.9Zm3.264-4.626h1.947v-1.426h-1.947v-1.989h-1.659v1.989H120.4v1.426h.919v3.812a2.908,2.908,0,0,0,.151,1.006,1.583,1.583,0,0,0,.432.651,1.7,1.7,0,0,0,.666.357,3.035,3.035,0,0,0,.837.11,3.178,3.178,0,0,0,.823-.091,2.883,2.883,0,0,0,.671-.276v-1.358a2.272,2.272,0,0,1-1.029.247.943.943,0,0,1-.658-.212.9.9,0,0,1-.233-.693Zm5.17-2.537v-1.577h-1.787v1.577Zm-.055,8.352v-7.241h-1.659v7.241Zm4.951-1.92L131.1-17.949h-1.783l2.976,7.3h1.495l2.962-7.3H135.01Zm11.767-1.7a3.748,3.748,0,0,0-.288-1.467,3.711,3.711,0,0,0-.8-1.2A3.748,3.748,0,0,0,142.5-17.8a3.965,3.965,0,0,0-1.542-.3,3.887,3.887,0,0,0-1.542.3,3.84,3.84,0,0,0-1.221.816,3.784,3.784,0,0,0-.809,1.207,3.724,3.724,0,0,0-.294,1.475,3.7,3.7,0,0,0,.288,1.463,3.732,3.732,0,0,0,.8,1.193,3.748,3.748,0,0,0,1.221.809,3.931,3.931,0,0,0,1.53.3,3.936,3.936,0,0,0,1.554-.3,3.818,3.818,0,0,0,1.227-.816,3.8,3.8,0,0,0,.809-1.2A3.676,3.676,0,0,0,144.811-14.329Zm-1.659.027a2.627,2.627,0,0,1-.151.9,2.164,2.164,0,0,1-.439.731,2.121,2.121,0,0,1-.693.5,2.168,2.168,0,0,1-.914.183,2.1,2.1,0,0,1-.884-.183,2.2,2.2,0,0,1-.7-.5,2.259,2.259,0,0,1-.457-.748,2.54,2.54,0,0,1-.165-.914,2.627,2.627,0,0,1,.151-.9,2.165,2.165,0,0,1,.439-.731,2.121,2.121,0,0,1,.693-.5,2.133,2.133,0,0,1,.9-.183,2.133,2.133,0,0,1,.9.183,2.15,2.15,0,0,1,.7.507,2.355,2.355,0,0,1,.457.747,2.485,2.485,0,0,1,.167.909Z" transform="translate(622.082 852.822)" fill="#fff"/>
    <g id="Grupo_976" data-name="Grupo 976" transform="translate(570.991 805.994)">
      <path id="Trazado_130" data-name="Trazado 130" d="M32.752,412.967H29.024a1.829,1.829,0,0,1-1.491-.62,1.907,1.907,0,0,1-.39-.914.525.525,0,0,1-.012-.083,3.525,3.525,0,0,1,.054-1.128,11.715,11.715,0,0,1,2.268-5.089,1.454,1.454,0,0,1-.258-.112,1.436,1.436,0,0,1-.651-1.549,4.053,4.053,0,0,1,1.04-1.771,4.879,4.879,0,0,1,3.428-1.586,4.389,4.389,0,0,1,4.15,2.508,23.072,23.072,0,0,1,2.309,7.837l.014.1a2.278,2.278,0,0,1-.037.922.488.488,0,0,1-.024.083,1.718,1.718,0,0,1-.378.656,2.468,2.468,0,0,1-1.463.7,4.275,4.275,0,0,1-.657.05H33.872v5.271h16.64a29.068,29.068,0,0,0-1.362-8.894,24.144,24.144,0,0,0-3.705-7.245,17.785,17.785,0,0,0-5.469-4.862,13.4,13.4,0,0,0-13.32,0,17.758,17.758,0,0,0-5.469,4.862,24.1,24.1,0,0,0-3.706,7.246,29.054,29.054,0,0,0-1.362,8.894h16.64v-5.268Z" transform="translate(-12.268 -380.672)" fill="#29b2e7"/>
      <path id="Trazado_131" data-name="Trazado 131" d="M16.111,444.46a29.523,29.523,0,0,0,.787,6.828c7.441-.846,11.885-1.722,13.2-2.6a4.191,4.191,0,0,1,2.651-1.006v-3.221Z" transform="translate(-12.264 -407.005)" fill="#fff"/>
      <path id="Trazado_132" data-name="Trazado 132" d="M54.311,447.811a6.072,6.072,0,0,1,1.7.573l.165-.007a7.329,7.329,0,0,1,2.886.655c.306.109.654.237,1.034.366a48.956,48.956,0,0,0,10.043,1.99,29.489,29.489,0,0,0,.811-6.925H54.31Z" transform="translate(-32.708 -407.006)" fill="#fff"/>
      <path id="Trazado_133" data-name="Trazado 133" d="M50.739,389.213h0" transform="translate(-30.797 -377.2)"/>
      <path id="Trazado_134" data-name="Trazado 134" d="M43.277,390.31" transform="translate(-26.804 -377.787)"/>
      <path id="Trazado_135" data-name="Trazado 135" d="M43.277,390.313h0" transform="translate(-26.804 -377.788)"/>
      <path id="Trazado_136" data-name="Trazado 136" d="M44.713,467.3a1.462,1.462,0,0,1-.306.43,1.645,1.645,0,0,1-1.118.436,1.7,1.7,0,0,1-1.737,1.006,1.863,1.863,0,0,1-.3.4,1.537,1.537,0,0,1-1.414.431,2.226,2.226,0,0,1-.575.333,2.32,2.32,0,0,1-1.334.106v4.412a.56.56,0,0,1-1.119,0v-4.225a2.127,2.127,0,0,1-.72.138,1.562,1.562,0,0,1-.293-.026,1.348,1.348,0,0,1-.788-.483,2.162,2.162,0,0,1-1.488-.214,1.122,1.122,0,0,1-.416-.52,2.965,2.965,0,0,1-.527-.111,1.463,1.463,0,0,1-.977-.823,3.43,3.43,0,0,1-.384-.036,1.4,1.4,0,0,1-1.131-.7,1.135,1.135,0,0,1-.087-.309c-2.371,1.221-5.078,2.44-6.293,2.977a22.539,22.539,0,0,0,1.533,2.309,17.78,17.78,0,0,0,5.469,4.863,14.217,14.217,0,0,0,2.941,1.238,1.271,1.271,0,0,1,.436-.475c.954-.624,2.769-.168,3.282-.02.512-.147,2.328-.6,3.282.02a1.308,1.308,0,0,1,.436.475,14.278,14.278,0,0,0,2.941-1.238,17.787,17.787,0,0,0,5.47-4.863,22.15,22.15,0,0,0,1.45-2.166,30.459,30.459,0,0,1-6.242-3.356" transform="translate(-16.333 -419.371)" fill="#fff"/>
      <path id="Trazado_137" data-name="Trazado 137" d="M48.716,494.873a1.554,1.554,0,0,0,.007-.731,3.509,3.509,0,0,0,1.974-1,1.627,1.627,0,0,0,.366-1.253,1.3,1.3,0,0,0-.589-.975c-.954-.624-2.769-.168-3.282-.02-.513-.147-2.329-.6-3.283.02a1.3,1.3,0,0,0-.589.975,1.622,1.622,0,0,0,.366,1.253,3.518,3.518,0,0,0,1.975,1,1.574,1.574,0,0,0,.005.72,6.365,6.365,0,0,1-3.622,1.764h0a2.729,2.729,0,0,0,.554.665,7.093,7.093,0,0,0,3.43-1.751,1.737,1.737,0,0,0,.175.166c-.12.464-.625,1.66-2.682,2.179a4.616,4.616,0,0,0,1.238.354,3.664,3.664,0,0,0,2.121-2.215,1.476,1.476,0,0,0,.309.031,1.5,1.5,0,0,0,.3-.029,3.666,3.666,0,0,0,2.12,2.211,4.531,4.531,0,0,0,1.239-.353c-2.049-.515-2.56-1.7-2.682-2.172a1.5,1.5,0,0,0,.183-.167,7.085,7.085,0,0,0,3.424,1.743,2.681,2.681,0,0,0,.554-.665,6.357,6.357,0,0,1-3.61-1.752" transform="translate(-26.146 -431.837)" fill="#29b2e7"/>
      <path id="Trazado_138" data-name="Trazado 138" d="M57.667,492.391a.559.559,0,0,1,.258.436.9.9,0,0,1-.2.7,2.143,2.143,0,0,1-.955.583,1.382,1.382,0,0,0,.074-1.105,1.685,1.685,0,0,0-.592-.786,2.4,2.4,0,0,1,1.416.171" transform="translate(-33.747 -432.693)" fill="#fff"/>
      <path id="Trazado_139" data-name="Trazado 139" d="M50.143,493.629c.274-.746,1.317-.757,1.36-.757h0a2.191,2.191,0,0,1,.6.1,1.112,1.112,0,0,1,.764.658.951.951,0,0,1-.315.908,1.561,1.561,0,0,0-2.084.006.946.946,0,0,1-.32-.914" transform="translate(-30.46 -433.054)" fill="#fff"/>
      <path id="Trazado_140" data-name="Trazado 140" d="M47.509,494.111a2.149,2.149,0,0,1-.956-.582.9.9,0,0,1-.2-.7.549.549,0,0,1,.258-.436,1.787,1.787,0,0,1,.937-.2c.155,0,.316.01.479.025a1.7,1.7,0,0,0-.592.787,1.371,1.371,0,0,0,.074,1.108" transform="translate(-28.445 -432.691)" fill="#fff"/>
      <path id="Trazado_141" data-name="Trazado 141" d="M51.338,498.022a.828.828,0,1,1,.827.823.828.828,0,0,1-.827-.823" transform="translate(-31.117 -435.369)" fill="#fff"/>
      <path id="Trazado_142" data-name="Trazado 142" d="M58.824,503a7.085,7.085,0,0,1-3.425-1.744,1.458,1.458,0,0,1-.183.167c.123.475.631,1.656,2.682,2.172a3.637,3.637,0,0,0,.923-.6" transform="translate(-33.194 -437.541)" fill="#fff"/>
      <path id="Trazado_143" data-name="Trazado 143" d="M46.672,501.239a7.1,7.1,0,0,1-3.432,1.75,3.58,3.58,0,0,0,.924.6c2.058-.518,2.56-1.714,2.682-2.179a1.568,1.568,0,0,1-.176-.166" transform="translate(-26.783 -437.534)" fill="#fff"/>
      <path id="Trazado_144" data-name="Trazado 144" d="M49.707,405.244a.352.352,0,0,0-.123-.314.366.366,0,0,0-.249-.084c.072-.15.137-.305.2-.464a7.152,7.152,0,0,0,.405-2.407.357.357,0,0,0-.157-.3.366.366,0,0,0-.245-.057c.053-.148.1-.3.141-.457a7.14,7.14,0,0,0,.163-2.434.352.352,0,0,0-.436-.313c.046-.175.084-.356.113-.538a7.142,7.142,0,0,0-.077-2.437.352.352,0,0,0-.213-.261.348.348,0,0,0-.19-.024c.023-.124.041-.251.056-.377a7.148,7.148,0,0,0-.192-2.431.358.358,0,0,0-.56-.2h0a5.648,5.648,0,0,0,.015-.59,7.155,7.155,0,0,0-.528-2.383.354.354,0,0,0-.257-.218.35.35,0,0,0-.274.053,5.305,5.305,0,0,0-.045-.549,7.166,7.166,0,0,0-.773-2.317.359.359,0,0,0-.549-.11c-.027-.165-.061-.335-.1-.5a7.238,7.238,0,0,0-1.042-2.215.366.366,0,0,0-.3-.157.359.359,0,0,0-.291.153,5.024,5.024,0,0,0-.218-.583,7.263,7.263,0,0,0-1.389-2.022.357.357,0,0,0-.549.036,5.683,5.683,0,0,0-.322-.572,7.192,7.192,0,0,0-1.663-1.759.358.358,0,0,0-.335-.057.351.351,0,0,0-.206.183,4.115,4.115,0,0,0-1.956-1.371c.145.013.3.026.449.036a5.348,5.348,0,0,0,1.714-.157.449.449,0,0,0-.11-.879,3.824,3.824,0,0,1-2-.549l-.306-.163,2.532-.377a.448.448,0,0,0,0-.888l-2.513-.357c.291-.077.63-.177.979-.3a5.262,5.262,0,0,0,1.522-.8.449.449,0,0,0,.105-.569.457.457,0,0,0-.549-.2,3.83,3.83,0,0,1-2.058.252c-.11-.011-.222-.023-.341-.031l2.194-1.306a.447.447,0,0,0,.183-.558.457.457,0,0,0-.528-.261l-2.469.625c.24-.183.517-.406.8-.651a5.25,5.25,0,0,0,1.1-1.318.448.448,0,0,0-.122-.565.457.457,0,0,0-.581.023,3.815,3.815,0,0,1-1.8,1.018c-.1.031-.211.062-.323.1l1.518-2.034a.447.447,0,0,0-.044-.586.457.457,0,0,0-.589-.042l-2.052,1.518c.152-.262.324-.575.487-.914a5.186,5.186,0,0,0,.506-1.634.451.451,0,0,0-.858-.232A3.8,3.8,0,0,1,33.123,367c-.084.068-.169.135-.257.209l.621-2.451a.452.452,0,0,0-.823-.341L31.352,366.6c.039-.3.078-.659.1-1.033a5.225,5.225,0,0,0-.164-1.7.452.452,0,0,0-.882.112,3.782,3.782,0,0,1-.549,1.988c-.049.091-.1.183-.154.286l-.366-2.5a.451.451,0,0,0-.447-.384h0a.449.449,0,0,0-.446.386l-.353,2.484c-.076-.287-.175-.619-.293-.96a5.216,5.216,0,0,0-.8-1.512.457.457,0,0,0-.571-.106.448.448,0,0,0-.2.542,3.772,3.772,0,0,1,.254,2.045c-.013.112-.025.226-.035.347l-1.324-2.185a.452.452,0,0,0-.823.344l.631,2.439c-.183-.238-.4-.508-.645-.78a5.245,5.245,0,0,0-1.325-1.093.457.457,0,0,0-.569.123.447.447,0,0,0,.023.578,3.792,3.792,0,0,1,1.024,1.792c.032.106.064.214.1.327l-2.06-1.514a.451.451,0,0,0-.629.632l1.526,2.023c-.261-.15-.571-.319-.9-.479a5.367,5.367,0,0,0-1.646-.506.457.457,0,0,0-.477.329.446.446,0,0,0,.243.525,3.821,3.821,0,0,1,1.637,1.265c.069.084.139.17.215.261l-2.482-.61a.457.457,0,0,0-.528.264.448.448,0,0,0,.183.557l2.194,1.3c-.3-.038-.656-.077-1.028-.1a5.275,5.275,0,0,0-1.714.161.449.449,0,0,0,.113.878,3.826,3.826,0,0,1,2,.549c.091.05.19.1.293.154l-2.522.366a.448.448,0,0,0,0,.888l2.541.366c-.294.079-.64.183-1,.3a5.3,5.3,0,0,0-1.52.8.446.446,0,0,0-.1.568.457.457,0,0,0,.549.2,4.315,4.315,0,0,1,1.339-.3,9.948,9.948,0,0,0-1.128,1.1c-.1.126-.2.26-.284.392a.352.352,0,0,0-.189-.15.357.357,0,0,0-.335.056,7.294,7.294,0,0,0-1.7,1.78,5.514,5.514,0,0,0-.32.564.358.358,0,0,0-.56-.049,7.259,7.259,0,0,0-1.39,2.021,5.208,5.208,0,0,0-.208.554.355.355,0,0,0-.229-.1.366.366,0,0,0-.305.145,7.211,7.211,0,0,0-1.135,2.168,5.154,5.154,0,0,0-.139.568.359.359,0,0,0-.584.07,7.17,7.17,0,0,0-.794,2.309,5.472,5.472,0,0,0-.051.549.356.356,0,0,0-.305-.07.35.35,0,0,0-.254.221,7.141,7.141,0,0,0-.493,2.391,5.222,5.222,0,0,0,.019.542.358.358,0,0,0-.528.224,7.17,7.17,0,0,0-.192,2.433c.016.14.037.274.062.414a.347.347,0,0,0-.157.027.353.353,0,0,0-.213.261,7.119,7.119,0,0,0-.076,2.437,5.07,5.07,0,0,0,.118.555.354.354,0,0,0-.34.311,7.153,7.153,0,0,0,.078,2.438c.036.159.077.317.126.469a.356.356,0,0,0-.4.346,7.131,7.131,0,0,0,.337,2.415,5.365,5.365,0,0,0,.242.6L8.384,405a.36.36,0,0,0-.33.081.356.356,0,0,0-.113.319,7.181,7.181,0,0,0,.757,2.322c.069.127.144.25.222.366a.372.372,0,0,0-.166.1.348.348,0,0,0-.091.325,7.2,7.2,0,0,0,.93,2.262c.1.15.2.293.309.43a.355.355,0,0,0-.293.474,7.223,7.223,0,0,0,1.189,2.142c.105.125.217.248.33.366a.358.358,0,0,0-.208.162.35.35,0,0,0-.011.338,7.279,7.279,0,0,0,1.434,1.991c.115.109.234.214.357.314a.356.356,0,0,0-.183.183.351.351,0,0,0,.025.336,7.315,7.315,0,0,0,1.637,1.834,5.274,5.274,0,0,0,.558.378l-.076.024a.354.354,0,0,0-.137.58,8.461,8.461,0,0,0,1.9,1.513,5.1,5.1,0,0,0,1.569.59,3.5,3.5,0,0,0,1.266.016.68.68,0,0,0,.072-.016,18.813,18.813,0,0,0,3.5,1.936,17.148,17.148,0,0,0,3.1.975q.328.068.625.119a2.756,2.756,0,0,1-1.189-.772,1.737,1.737,0,0,1-.142-.2,16.881,16.881,0,0,1-2.134-.731,18.232,18.232,0,0,1-3.351-1.851.228.228,0,0,0,.009-.04,3.49,3.49,0,0,0-.119-1.078,15.531,15.531,0,0,0,2.2,1.533,14.952,14.952,0,0,0,3.158,1.309,1.475,1.475,0,0,1,.012-.183,1.362,1.362,0,0,1,.153-.5,14.313,14.313,0,0,1-2.941-1.231,17.759,17.759,0,0,1-5.47-4.833,22.189,22.189,0,0,1-1.532-2.294c1.214-.536,3.922-1.748,6.292-2.959a1.1,1.1,0,0,0,.087.307,1.4,1.4,0,0,0,1.131.7,3.653,3.653,0,0,0,.384.035,1.463,1.463,0,0,0,.977.815,2.75,2.75,0,0,0,.527.111,1.106,1.106,0,0,0,.416.518,2.169,2.169,0,0,0,1.488.213,1.346,1.346,0,0,0,.788.479,1.578,1.578,0,0,0,.293.026,2.127,2.127,0,0,0,.72-.138v4.2a.56.56,0,1,0,1.119,0v-4.388a2.36,2.36,0,0,0,1.334-.106,2.233,2.233,0,0,0,.575-.331,1.542,1.542,0,0,0,1.414-.428,1.918,1.918,0,0,0,.3-.393,1.7,1.7,0,0,0,1.737-1,1.655,1.655,0,0,0,1.118-.433,1.425,1.425,0,0,0,.306-.428,30.348,30.348,0,0,0,6.244,3.334,21.938,21.938,0,0,1-1.45,2.153,17.731,17.731,0,0,1-5.47,4.833,14.3,14.3,0,0,1-2.942,1.231,1.359,1.359,0,0,1,.152.5,1.828,1.828,0,0,1,.011.183,14.925,14.925,0,0,0,3.16-1.309,16.136,16.136,0,0,0,2.234-1.552,3.449,3.449,0,0,0-.127,1.09.494.494,0,0,0,.005.053,14.977,14.977,0,0,1-2.458,1.482,16.227,16.227,0,0,1-2.934,1.1c-.041.011-.084.02-.126.03a1.7,1.7,0,0,1-.122.17,2.812,2.812,0,0,1-1.217.782,16.466,16.466,0,0,0,1.646-.346,16.983,16.983,0,0,0,3.061-1.146,15.371,15.371,0,0,0,2.568-1.554l.054.017a3.468,3.468,0,0,0,1.274-.014,5.128,5.128,0,0,0,1.569-.59,8.4,8.4,0,0,0,1.905-1.514.351.351,0,0,0,.091-.327.355.355,0,0,0-.229-.251c-.008,0-.027-.01-.056-.018a5.329,5.329,0,0,0,.569-.385,7.315,7.315,0,0,0,1.637-1.833.348.348,0,0,0,.024-.337.353.353,0,0,0-.183-.183c.123-.1.242-.2.357-.314a7.242,7.242,0,0,0,1.433-1.991.35.35,0,0,0-.01-.337.357.357,0,0,0-.259-.172,5.05,5.05,0,0,0,.366-.4,7.232,7.232,0,0,0,1.189-2.143.35.35,0,0,0-.039-.318.358.358,0,0,0-.283-.156h0c.105-.13.206-.265.3-.407a7.159,7.159,0,0,0,.965-2.246.346.346,0,0,0-.084-.326.352.352,0,0,0-.287-.113,5.481,5.481,0,0,0,.274-.48,7.066,7.066,0,0,0,.677-2.34m-.423-2.781a.018.018,0,0,1,.009.018,6.146,6.146,0,0,1-.337,1.664,4.178,4.178,0,0,1-.743,1.3,3.237,3.237,0,0,1-.89.731h-.009a.022.022,0,0,1-.016-.007,3.858,3.858,0,0,1-.719-2.433,5.274,5.274,0,0,1,.1-.914.019.019,0,0,1,.014-.016.016.016,0,0,1,.019.007,4.67,4.67,0,0,1,.688,1.255.265.265,0,0,0,.236.183.262.262,0,0,0,.255-.149,4.244,4.244,0,0,1,1.371-1.64.026.026,0,0,1,.024,0m-.068-3.179a.017.017,0,0,1,.019,0,.018.018,0,0,1,.012.017,6.126,6.126,0,0,1-.17,1.689,4.191,4.191,0,0,1-.61,1.358,3.212,3.212,0,0,1-.812.815.012.012,0,0,1-.01,0h-.01a4.717,4.717,0,0,1-.929-3.215.019.019,0,0,1,.033-.011,5.62,5.62,0,0,1,.785,1.134.261.261,0,0,0,.254.146.263.263,0,0,0,.235-.174,4.2,4.2,0,0,1,1.2-1.762m-.346-3.231a.017.017,0,0,1,.019,0,.02.02,0,0,1,.013.015,6.2,6.2,0,0,1,0,1.7,4.145,4.145,0,0,1-.472,1.418,3.211,3.211,0,0,1-.74.9h-.02a4.843,4.843,0,0,1-1.2-3.095.021.021,0,0,1,.01-.018.02.02,0,0,1,.021,0,5.571,5.571,0,0,1,.868,1.03.266.266,0,0,0,.484-.074,4.206,4.206,0,0,1,1.023-1.876m-.511-3.07a.017.017,0,0,1,.019-.005.022.022,0,0,1,.014.015,6.175,6.175,0,0,1,.078,1.7,4.144,4.144,0,0,1-.4,1.438,3.205,3.205,0,0,1-.684.923h-.021a4.1,4.1,0,0,1-1.232-2.15,6.433,6.433,0,0,1-.156-.9.02.02,0,0,1,.03-.017,5.682,5.682,0,0,1,.946,1.012.267.267,0,0,0,.48-.1,4.206,4.206,0,0,1,.932-1.92m-24.67.2c.006-.041.015-.084.022-.125a10.889,10.889,0,0,1,1.882-4.389,7.236,7.236,0,0,1,1.1-1.2c.068-.048.133-.1.2-.157a.5.5,0,0,0,.072-.69.508.508,0,0,0-.689-.106c-.02.014-.1.068-.213.164-.472.328-.742.221-.814.183a.49.49,0,0,1-.175-.54,3.136,3.136,0,0,1,.79-1.261l.024-.027a3.976,3.976,0,0,1,2.718-1.231h.048a3.311,3.311,0,0,1,1.172.17,3.481,3.481,0,0,1,2.047,1.8,19.428,19.428,0,0,1,1.52,3.911,6.391,6.391,0,0,1-1.67-.932.509.509,0,0,0-.713.067.5.5,0,0,0-.114.366.492.492,0,0,0,.183.339,6.969,6.969,0,0,0,2.587,1.28c.1.457.183.946.274,1.512a7.164,7.164,0,0,0-1.4-.476,7.074,7.074,0,0,1-.785-.236A8.235,8.235,0,0,1,30,390.576a.5.5,0,1,0-.628.79,9.178,9.178,0,0,0,2.019,1.158,8.122,8.122,0,0,0,.9.274c1.2.316,1.746.558,1.773,1.152a.742.742,0,0,1-.152.246,2.185,2.185,0,0,1-1.52.438H31.229a4.832,4.832,0,0,1-2.377-.691c-2.56-1.639-3.726-1.381-5.163-.762m4.367,1.456H24.6a.914.914,0,0,1-.744-.264.672.672,0,0,1-.084-.129c1.446-.654,2.207-.885,4.281.393m1.392,6.2V395.6H32.5a4.456,4.456,0,0,0,.657-.051,2.475,2.475,0,0,0,1.463-.7A1.73,1.73,0,0,0,35,394.2a.437.437,0,0,0,.025-.082,2.251,2.251,0,0,0,.037-.914l-.015-.1a22.813,22.813,0,0,0-2.309-7.79,4.394,4.394,0,0,0-4.15-2.492,4.885,4.885,0,0,0-3.428,1.577,4.023,4.023,0,0,0-1.04,1.76,1.421,1.421,0,0,0,.651,1.539,1.306,1.306,0,0,0,.258.112,11.6,11.6,0,0,0-2.268,5.058,3.514,3.514,0,0,0-.055,1.12.365.365,0,0,0,.012.083,1.888,1.888,0,0,0,.39.914,1.834,1.834,0,0,0,1.492.616h3.728v8.441a4.213,4.213,0,0,0-2.651,1c-1.319.877-5.76,1.748-13.2,2.588a29.126,29.126,0,0,1-.787-6.787A28.708,28.708,0,0,1,13.048,392a23.931,23.931,0,0,1,3.706-7.2,17.737,17.737,0,0,1,5.47-4.832,13.468,13.468,0,0,1,13.32,0,17.754,17.754,0,0,1,5.47,4.832,23.931,23.931,0,0,1,3.706,7.2,28.708,28.708,0,0,1,1.363,8.839,29.1,29.1,0,0,1-.811,6.883,49.375,49.375,0,0,1-10.04-1.978c-.38-.128-.731-.253-1.035-.366a7.394,7.394,0,0,0-2.886-.65l-.165.007a6.08,6.08,0,0,0-1.7-.565v-3.33h0Zm7.033-23.672a6.647,6.647,0,0,1-1.183.342,4.752,4.752,0,0,1-.869.085,2.834,2.834,0,0,1-1.664-.479.017.017,0,0,1-.007-.016.018.018,0,0,1,.009-.016,3.711,3.711,0,0,1,.98-.382,3.545,3.545,0,0,1,1.412-.043,4.187,4.187,0,0,1,1.325.475.018.018,0,0,1,.01.017.019.019,0,0,1-.012.017m.65,1.822a.017.017,0,0,1,0,.016.02.02,0,0,1-.013.014,3.024,3.024,0,0,1-.855.159h-.127a3.645,3.645,0,0,1-2.245-.837.019.019,0,0,1-.007-.019.018.018,0,0,1,.013-.014,4.048,4.048,0,0,1,.968-.183,2.756,2.756,0,0,1,2.261.859m-3.559-2.834a5.385,5.385,0,0,1-1.616.423.264.264,0,0,0-.118.481,5.6,5.6,0,0,1,1.059.977.018.018,0,0,1,0,.019.017.017,0,0,1-.016.01h0a4.229,4.229,0,0,1-3.13-1.418.018.018,0,0,1,0-.026,2.512,2.512,0,0,1,.854-.519,4.912,4.912,0,0,1,2.961.016.019.019,0,0,1,.014.016.024.024,0,0,1-.012.02m-3.326-.542a4.661,4.661,0,0,1-1.517.731.264.264,0,0,0-.016.5,4.7,4.7,0,0,1,1.2.7.016.016,0,0,1,.005.018.016.016,0,0,1-.016.012c-.183.018-.412.032-.662.032a4.455,4.455,0,0,1-2.662-.755.017.017,0,0,1,0-.025,2.5,2.5,0,0,1,.731-.677,4.937,4.937,0,0,1,2.934-.574.021.021,0,0,1,.016.015.021.021,0,0,1-.006.022m-3.417.056a3.631,3.631,0,0,1-1.371,1.039.265.265,0,0,0,.069.5,5.745,5.745,0,0,1,1.326.442.018.018,0,0,1,.01.018.016.016,0,0,1-.013.016,6.361,6.361,0,0,1-.88.221,5.225,5.225,0,0,1-.914.083,3.813,3.813,0,0,1-1.6-.32.017.017,0,0,1-.01-.01.017.017,0,0,1,0-.014,2.445,2.445,0,0,1,.56-.812,4.927,4.927,0,0,1,2.8-1.188.018.018,0,0,1,.019.009.018.018,0,0,1,0,.018m-4.4,2.088a.264.264,0,0,0,.174.465h0a5.635,5.635,0,0,1,.68.048,4.636,4.636,0,0,1,.716.148.018.018,0,0,1,.014.016.022.022,0,0,1-.011.018,6.641,6.641,0,0,1-.848.357,4.92,4.92,0,0,1-1.6.288,3.474,3.474,0,0,1-.946-.125.018.018,0,0,1-.013-.021c.114-.558.634-1.94,3.017-2.743a.021.021,0,0,1,.019,0,.019.019,0,0,1,0,.02,4.255,4.255,0,0,1-1.2,1.523M46.721,391.9a4.2,4.2,0,0,1,.658-2.026.018.018,0,0,1,.018-.009.021.021,0,0,1,.016.013,6.209,6.209,0,0,1,.312,1.669,4.167,4.167,0,0,1-.2,1.481,3.2,3.2,0,0,1-.549,1.006.019.019,0,0,1-.015.007h-.01a3.943,3.943,0,0,1-1.544-1.977,5.988,5.988,0,0,1-.264-.862.016.016,0,0,1,.007-.018.014.014,0,0,1,.02,0,5.553,5.553,0,0,1,1.092.884.266.266,0,0,0,.457-.162m-1.061-2.926A4.172,4.172,0,0,1,46.1,386.9a.016.016,0,0,1,.017-.01.021.021,0,0,1,.016.011,6.161,6.161,0,0,1,.485,1.629,4.127,4.127,0,0,1-.046,1.492,3.193,3.193,0,0,1-.441,1.056.019.019,0,0,1-.016.008h-.009a3.971,3.971,0,0,1-1.744-1.812,5.879,5.879,0,0,1-.353-.83.017.017,0,0,1,.026-.019,5.726,5.726,0,0,1,1.178.768.268.268,0,0,0,.29.042.263.263,0,0,0,.153-.25M44.175,386.5h0a.265.265,0,0,0,.129-.274,4.162,4.162,0,0,1,.193-2.114.016.016,0,0,1,.016-.012.019.019,0,0,1,.018.01,6.278,6.278,0,0,1,.676,1.565,4.178,4.178,0,0,1,.132,1.488,3.171,3.171,0,0,1-.313,1.1.019.019,0,0,1-.017.01H45a3.913,3.913,0,0,1-2-1.618,5.136,5.136,0,0,1-.437-.815.018.018,0,0,1,0-.018.016.016,0,0,1,.019-.005,4.267,4.267,0,0,1,1.287.663.274.274,0,0,0,.3.02m-1.993-2.553a.267.267,0,0,0,.31,0,.262.262,0,0,0,.1-.292,4.644,4.644,0,0,1-.133-2.1.016.016,0,0,1,.014-.014.018.018,0,0,1,.019.005,6.27,6.27,0,0,1,.9,1.413,4.171,4.171,0,0,1,.372,1.448,3.1,3.1,0,0,1-.13,1.131.018.018,0,0,1-.017.012h0a4.031,4.031,0,0,1-2.184-1.28,5.917,5.917,0,0,1-.61-.761.019.019,0,0,1,.016-.03,3.061,3.061,0,0,1,1.349.463m-2-2.26a.268.268,0,0,0,.294-.068.264.264,0,0,0,.038-.3,4.171,4.171,0,0,1-.492-2.063.02.02,0,0,1,.011-.016.018.018,0,0,1,.019,0,6.2,6.2,0,0,1,1.109,1.257,4.353,4.353,0,0,1,.6,1.376,3.368,3.368,0,0,1,.075,1.163.018.018,0,0,1-.018.016h-.046a3.874,3.874,0,0,1-2.238-.889,7,7,0,0,1-.767-.685.019.019,0,0,1,0-.02.018.018,0,0,1,.017-.012h.1a4.081,4.081,0,0,1,1.3.236m-.791-2.06a3.493,3.493,0,0,1,.231,1.291.019.019,0,0,1-.018.019c-.047,0-.091,0-.141,0a6.337,6.337,0,0,1-3.045-1.179.018.018,0,0,1-.008-.019.018.018,0,0,1,.014-.014,3.739,3.739,0,0,1,1.36.02.266.266,0,0,0,.286-.114.261.261,0,0,0-.016-.306,5.446,5.446,0,0,1-.848-1.584.02.02,0,0,1,0-.019.018.018,0,0,1,.019-.005,3.273,3.273,0,0,1,2.16,1.907M19.55,376.408c.051-.019.1-.039.157-.057a14.681,14.681,0,0,1,1.564-.441,4.288,4.288,0,0,0,1.232-.482.181.181,0,0,0-.071-.332l-3.154-.457,3.153-.457a.183.183,0,0,0,0-.357,6.064,6.064,0,0,1-1.393-.421c-.209-.091-.392-.194-.555-.281a4.949,4.949,0,0,0-.9-.407,1.124,1.124,0,0,1,.167.008,14.462,14.462,0,0,1,1.615.189,4.237,4.237,0,0,0,1.324.023.183.183,0,0,0,.062-.333l-2.736-1.617,3.092.77a.183.183,0,0,0,.213-.106.177.177,0,0,0-.075-.224,6.026,6.026,0,0,1-1.124-.921c-.154-.164-.28-.318-.4-.47a4.946,4.946,0,0,0-.678-.722l.152.069a14.845,14.845,0,0,1,1.418.791,4.258,4.258,0,0,0,1.213.527.183.183,0,0,0,.183-.285l-1.91-2.531,2.56,1.884a.183.183,0,0,0,.254-.255,5.871,5.871,0,0,1-.683-1.28c-.08-.209-.136-.4-.192-.587a4.916,4.916,0,0,0-.347-.923c.038.039.076.081.114.123a14.783,14.783,0,0,1,1.006,1.27,4.223,4.223,0,0,0,.914.948.183.183,0,0,0,.282-.193l-.792-3.062,1.646,2.714a.182.182,0,0,0,.333-.135,5.968,5.968,0,0,1-.137-1.443c.007-.224.028-.421.048-.614a4.877,4.877,0,0,0,.036-.987c.02.051.038.1.058.156a14.3,14.3,0,0,1,.437,1.554,4.178,4.178,0,0,0,.483,1.225.182.182,0,0,0,.335-.07l.442-3.108.457,3.108a.183.183,0,0,0,.36,0,5.844,5.844,0,0,1,.424-1.387,6,6,0,0,1,.281-.549,4.961,4.961,0,0,0,.411-.9,1.259,1.259,0,0,1-.007.166,14.733,14.733,0,0,1-.189,1.605,4.24,4.24,0,0,0-.023,1.316.182.182,0,0,0,.336.06l1.629-2.717-.777,3.068a.183.183,0,0,0,.333.137,6.024,6.024,0,0,1,.926-1.117c.162-.151.316-.274.473-.4a4.878,4.878,0,0,0,.725-.675c-.023.05-.046.1-.07.151a14.814,14.814,0,0,1-.794,1.41,4.291,4.291,0,0,0-.528,1.205.183.183,0,0,0,.286.183l2.548-1.891-1.9,2.541a.181.181,0,0,0,.254.253,6.151,6.151,0,0,1,1.287-.68c.21-.079.4-.135.591-.19a4.922,4.922,0,0,0,.929-.346l-.123.112a14.773,14.773,0,0,1-1.28,1,4.228,4.228,0,0,0-.953.914.182.182,0,0,0,.195.28l3.081-.78-2.73,1.627a.183.183,0,0,0,.139.329,5.994,5.994,0,0,1,1.45-.137c.228.007.427.028.619.048a4.87,4.87,0,0,0,.992.034l-.157.058a14.65,14.65,0,0,1-1.565.434,4.276,4.276,0,0,0-1.232.481.182.182,0,0,0,.071.334l3.148.45-3.15.467a.183.183,0,0,0,0,.359,5.942,5.942,0,0,1,1.947.707,4.861,4.861,0,0,0,.9.408,1.281,1.281,0,0,1-.167-.007,14.855,14.855,0,0,1-1.615-.194l-.083-.014a4.5,4.5,0,0,0-1.737-.381v-.015a.358.358,0,0,0-.233-.26,7.5,7.5,0,0,0-2.388-.452,5.009,5.009,0,0,0-.767.053.356.356,0,0,0-.031-.091.366.366,0,0,0-.274-.2,7.56,7.56,0,0,0-2.432.034,4.717,4.717,0,0,0-.805.229.359.359,0,0,0-.389-.32,7.538,7.538,0,0,0-2.367.549,5.264,5.264,0,0,0-.51.254.361.361,0,0,0-.457-.308,7.4,7.4,0,0,0-2.253,1l-.037.027c-.168.01-.333.013-.489.009-.133,0-.571-.043-.619-.048a4.537,4.537,0,0,0-1-.038m.848.91a.015.015,0,0,1,.02,0,.017.017,0,0,1,.009.017,4.16,4.16,0,0,1-.695,2.011.262.262,0,0,0,0,.294.266.266,0,0,0,.274.11,5.745,5.745,0,0,1,1.371-.082.017.017,0,0,1,.016.013.02.02,0,0,1-.006.021,5.222,5.222,0,0,1-3,1.239h-.134a.019.019,0,0,1-.017-.018c-.032-.6.112-2.136,2.159-3.6m-4.333,4.564a4.15,4.15,0,0,1,.6-1.371,6.392,6.392,0,0,1,1.144-1.28.018.018,0,0,1,.03.016,4.173,4.173,0,0,1-.494,2.067.263.263,0,0,0,.035.294.266.266,0,0,0,.287.078A5.355,5.355,0,0,1,19,381.446a.022.022,0,0,1,.018.012.02.02,0,0,1,0,.02,8.338,8.338,0,0,1-.787.686,3.814,3.814,0,0,1-2.1.9h-.091a.019.019,0,0,1-.018-.016,3.08,3.08,0,0,1,.05-1.16m-.7-.366a.018.018,0,0,1,.019-.005.018.018,0,0,1,.014.014,4.155,4.155,0,0,1-.155,2.12.263.263,0,0,0,.091.294.274.274,0,0,0,.311.007,3.1,3.1,0,0,1,1.331-.457.021.021,0,0,1,.018.01.023.023,0,0,1,0,.019,4.792,4.792,0,0,1-2.77,2.04h0a.019.019,0,0,1-.019-.012c-.19-.569-.452-2.1,1.161-4.023m-2.779,4.138a6.217,6.217,0,0,1,.741-1.536.018.018,0,0,1,.018-.008.02.02,0,0,1,.016.012,4.154,4.154,0,0,1,.1,2.126.259.259,0,0,0,.134.283.262.262,0,0,0,.314-.045,2.591,2.591,0,0,1,1.3-.631.019.019,0,0,1,.017.008.021.021,0,0,1,0,.019,5.956,5.956,0,0,1-.522.866,3.859,3.859,0,0,1-2.026,1.509h0a.019.019,0,0,1-.017-.01,3.175,3.175,0,0,1-.268-1.114,4.149,4.149,0,0,1,.193-1.48m-1.5,2.856a6.166,6.166,0,0,1,.5-1.626.017.017,0,0,1,.016-.01h0a.018.018,0,0,1,.016.01,4.158,4.158,0,0,1,.424,2.088.263.263,0,0,0,.15.251.267.267,0,0,0,.291-.038,5.5,5.5,0,0,1,1.248-.785.02.02,0,0,1,.019,0,.018.018,0,0,1,.005.018,4.04,4.04,0,0,1-2.186,2.645.01.01,0,0,1-.008,0,.02.02,0,0,1-.016-.009,3.109,3.109,0,0,1-.428-1.056,4.2,4.2,0,0,1-.032-1.494m-.817,1.334a.019.019,0,0,1,.034,0,4.173,4.173,0,0,1,.686,2.018.262.262,0,0,0,.183.23.266.266,0,0,0,.285-.082,4.69,4.69,0,0,1,1.137-.936.021.021,0,0,1,.019,0,.019.019,0,0,1,.008.017,4.193,4.193,0,0,1-.183.83,3.81,3.81,0,0,1-1.646,2.085h-.01a.019.019,0,0,1-.015-.008,3.2,3.2,0,0,1-.564-1,4.133,4.133,0,0,1-.222-1.477,6.174,6.174,0,0,1,.289-1.68m-.914,3.1a.016.016,0,0,1,.014-.015.018.018,0,0,1,.019.005,4.206,4.206,0,0,1,.933,1.92.266.266,0,0,0,.479.1,5.5,5.5,0,0,1,.984-1.043.019.019,0,0,1,.02,0,.02.02,0,0,1,.01.018,4.773,4.773,0,0,1-.114.823A4.183,4.183,0,0,1,10.389,397a.017.017,0,0,1-.024,0,3.2,3.2,0,0,1-.677-.914,4.18,4.18,0,0,1-.405-1.438,6.143,6.143,0,0,1,.078-1.7m-.472,3.108a.017.017,0,0,1,.013-.015.019.019,0,0,1,.019,0,4.2,4.2,0,0,1,1.022,1.875.274.274,0,0,0,.232.2.267.267,0,0,0,.266-.15,3.893,3.893,0,0,1,.83-1.086.021.021,0,0,1,.031.016,5.82,5.82,0,0,1-.078.934,3.779,3.779,0,0,1-1.11,2.233.023.023,0,0,1-.013,0H10.09a3.23,3.23,0,0,1-.727-.892,4.174,4.174,0,0,1-.474-1.418,6.324,6.324,0,0,1,0-1.7m-.262,3.261a.017.017,0,0,1,.012-.016.013.013,0,0,1,.019,0c.068.061.134.129.2.2a4.3,4.3,0,0,1,.941,1.612.266.266,0,0,0,.516-.038h0a2.286,2.286,0,0,1,.68-1.177.022.022,0,0,1,.019,0,.025.025,0,0,1,.013.016,4.871,4.871,0,0,1,0,1.543,3.149,3.149,0,0,1-.914,1.793.019.019,0,0,1-.014.006h-.01c-.493-.352-1.618-1.439-1.463-3.931M8.5,402.506a.018.018,0,0,1,.02,0c.075.057.147.114.219.176a4.329,4.329,0,0,1,1.107,1.508.265.265,0,0,0,.242.156h0a.266.266,0,0,0,.242-.164,5.42,5.42,0,0,1,.76-1.252.018.018,0,0,1,.019-.006.022.022,0,0,1,.014.015,4.055,4.055,0,0,1-.754,3.329.016.016,0,0,1-.015.007h-.009c-.523-.3-1.749-1.273-1.859-3.748a.017.017,0,0,1,.009-.018m.165,3.3a.017.017,0,0,1,.007-.019.015.015,0,0,1,.019,0,4.247,4.247,0,0,1,1.6,1.433.265.265,0,0,0,.274.111.259.259,0,0,0,.209-.2h0a5.449,5.449,0,0,1,.542-1.384.019.019,0,0,1,.033,0,3.73,3.73,0,0,1,.287.843,3.518,3.518,0,0,1-.445,2.595.015.015,0,0,1-.016.01h-.006a3.291,3.291,0,0,1-1-.6,4.231,4.231,0,0,1-.929-1.189,6.218,6.218,0,0,1-.578-1.6m.753,3.064a.016.016,0,0,1,.005-.018.018.018,0,0,1,.02,0c.085.035.17.074.254.116a4.4,4.4,0,0,1,1.45,1.2.266.266,0,0,0,.473-.126,5.461,5.461,0,0,1,.411-1.367.018.018,0,0,1,.017-.011.02.02,0,0,1,.017.011,4.1,4.1,0,0,1,.125,3.383.017.017,0,0,1-.017.011h-.005c-.585-.165-2.021-.805-2.748-3.191m1.857,4.539a6.254,6.254,0,0,1-.874-1.463.018.018,0,0,1,0-.019.017.017,0,0,1,.019-.006,2.513,2.513,0,0,1,.265.091,4.376,4.376,0,0,1,1.58,1.024.267.267,0,0,0,.287.059.263.263,0,0,0,.167-.24,5.408,5.408,0,0,1,.242-1.386.019.019,0,0,1,.016-.012.017.017,0,0,1,.018.01,5.4,5.4,0,0,1,.384.813,3.84,3.84,0,0,1,.139,2.515.018.018,0,0,1-.018.015h0a3.311,3.311,0,0,1-1.087-.409,4.291,4.291,0,0,1-1.139-.989m.457,1.452a.016.016,0,0,1,0-.018.018.018,0,0,1,.018-.009,4.35,4.35,0,0,1,1.965.893.266.266,0,0,0,.3.024.262.262,0,0,0,.134-.262,4.817,4.817,0,0,1,.07-1.371.016.016,0,0,1,.015-.014.019.019,0,0,1,.019.007,6.414,6.414,0,0,1,.468.789,4.057,4.057,0,0,1,.452,2.432.018.018,0,0,1-.018.016h0a3.266,3.266,0,0,1-1.125-.281,4.336,4.336,0,0,1-1.249-.855,6.252,6.252,0,0,1-1.043-1.351m6.126,5.3a5.072,5.072,0,0,1-.326-1.341.017.017,0,0,1,.01-.017.015.015,0,0,1,.02,0,3.923,3.923,0,0,1,1.587,3.017.018.018,0,0,1-.016.017,2.477,2.477,0,0,1-.417.032,3.237,3.237,0,0,1-.632-.064,5.775,5.775,0,0,1-2.725-1.554.017.017,0,0,1-.005-.018.02.02,0,0,1,.016-.013,4.367,4.367,0,0,1,2.145.285.266.266,0,0,0,.287-.061.262.262,0,0,0,.057-.287m-2.423-1.914a.266.266,0,0,0,.4-.288,4.365,4.365,0,0,1-.091-1.358.016.016,0,0,1,.013-.016.021.021,0,0,1,.02.006,4.822,4.822,0,0,1,1.269,3.108.018.018,0,0,1-.018.017H16.9a3.365,3.365,0,0,1-1.024-.166,4.372,4.372,0,0,1-1.334-.722,6.332,6.332,0,0,1-1.178-1.236.018.018,0,0,1,.017-.028,4.312,4.312,0,0,1,2.047.684m10.409-6.94c-.086.058-.168.114-.245.168a2.512,2.512,0,0,0-1.053,1.251,1.847,1.847,0,0,1-.208-.055c-.436-.143-.457-.361-.464-.441-.013-.225.105-.426.436-.741a1.576,1.576,0,0,1,.993-.549.64.64,0,0,1,.286.068.457.457,0,0,1,.25.221.158.158,0,0,1,.006.08m.549,2.182a1.463,1.463,0,0,1-.878-.079.3.3,0,0,1-.133-.249c-.038-.366.442-.761.731-.963a2.1,2.1,0,0,1,1.015-.492.524.524,0,0,1,.351.139c.091.08.137.152.134.209a.732.732,0,0,1-.293.4,2.57,2.57,0,0,0-.926,1.037m2.257.075a1.848,1.848,0,0,1-1.168.411.479.479,0,0,1-.267-.15,2.35,2.35,0,0,1,1-.886c.5-.287.719-.121.724-.115.147.143.138.222.135.25-.018.177-.274.393-.388.467l-.036.022m-4.748-2.9c-.067.058-.133.118-.208.188a2.21,2.21,0,0,0-.656.963c-.066-.006-.127-.013-.183-.021-.286-.047-.445-.136-.475-.2-.018-.045-.075-.171.091-.391a1.657,1.657,0,0,1,1.143-.569.693.693,0,0,1,.1.007h.037a1.1,1.1,0,0,1,.149.024m11.428.549a.862.862,0,0,1-.59.2,7.833,7.833,0,0,0-2.56-2.262.448.448,0,0,0-.339-.022.44.44,0,0,0-.049.814,6.964,6.964,0,0,1,2.229,1.988.884.884,0,0,1-.132.2.914.914,0,0,1-.731.28,3.863,3.863,0,0,0-.592-.849,8.128,8.128,0,0,0-1.167-.987.443.443,0,0,0-.692.437.434.434,0,0,0,.183.285,7,7,0,0,1,1.006.845,2.936,2.936,0,0,1,.463.649,1.082,1.082,0,0,1-.2.274.684.684,0,0,1-.591.183,4.926,4.926,0,0,0-.81-1.22.445.445,0,0,0-.626-.037.439.439,0,0,0-.037.624,4.106,4.106,0,0,1,.611.884,1.286,1.286,0,0,1-.231.116,1.454,1.454,0,0,1-.716.091,1.244,1.244,0,0,0,.2-.533,1.155,1.155,0,0,0-.4-.974,1.23,1.23,0,0,0-1.07-.287,1.179,1.179,0,0,0-.432-.731,1.4,1.4,0,0,0-1.4-.286h0a1.314,1.314,0,0,0-.674-.675,1.569,1.569,0,0,0-1.189-.083,1.829,1.829,0,0,0-.973-.373,2.46,2.46,0,0,0-1.855.673c-2.534,1.348-5.791,2.8-7.117,3.383a25.35,25.35,0,0,1-1.76-4.167c-.13-.4-.251-.81-.366-1.223,3.724-.423,6.719-.858,8.9-1.292a14.111,14.111,0,0,0,4.531-1.408,3.292,3.292,0,0,1,2.3-.838c.2.016.375.036.541.059a2.463,2.463,0,0,0-.457.252c-.35.244-.565.419-.755.572a5.948,5.948,0,0,1-.586.433,6.062,6.062,0,0,1-.613.324c-.518.251-.928.452-1.061.8a1.065,1.065,0,0,0,.176,1.072,1.62,1.62,0,0,0,1.56.489,4.419,4.419,0,0,0,1.806-.541c.183-.106.349-.212.493-.309a2.132,2.132,0,0,1,.549-.3l.026-.005a2.456,2.456,0,0,1,1.554.157,8.718,8.718,0,0,1,1.554.845,10.316,10.316,0,0,1,2.277,2.08.7.7,0,0,1-.2.4m1.609-.34a4.5,4.5,0,0,1-.772-.685l0-.006-.015-.017c-.035-.039-.057-.068-.064-.077a11.025,11.025,0,0,0-2.348-2.1c-.817-.529-2.34-1.512-3.812-1.116a2.63,2.63,0,0,0-.843.427c-.141.091-.284.183-.448.281a3.529,3.529,0,0,1-1.411.423c-.42.023-.682.027-.788-.12s-.091-.183-.078-.222a4.16,4.16,0,0,1,.629-.348,7.2,7.2,0,0,0,.706-.377,6.893,6.893,0,0,0,.662-.491c.177-.144.379-.306.7-.534a2.791,2.791,0,0,1,1.659-.334h.014l.345-.009c.091,0,.183-.006.274-.01a6.753,6.753,0,0,1,2.56.6c.31.111.663.24,1.061.373.06.019,1.5.471,3.463.933a42.27,42.27,0,0,0,6.577,1.07c-.1.38-.218.757-.335,1.118a25.3,25.3,0,0,1-1.839,4.311,30.979,30.979,0,0,1-5.9-3.093m5.5,9.378a5.727,5.727,0,0,1-2.724,1.554,3.244,3.244,0,0,1-.633.064,2.532,2.532,0,0,1-.416-.032.019.019,0,0,1-.016-.017,3.312,3.312,0,0,1,.921-2.342,5.76,5.76,0,0,1,.681-.66.017.017,0,0,1,.02,0,.019.019,0,0,1,.01.019,5.5,5.5,0,0,1-.341,1.323.263.263,0,0,0,.056.286.266.266,0,0,0,.287.061,4.375,4.375,0,0,1,2.143-.283.021.021,0,0,1,.016.013.017.017,0,0,1,0,.019m2.011-2.659a6.35,6.35,0,0,1-1.177,1.234,4.344,4.344,0,0,1-1.333.722,3.432,3.432,0,0,1-1.024.167h-.127a.017.017,0,0,1-.012-.005.017.017,0,0,1-.005-.012,3.892,3.892,0,0,1,.7-2.393,6.032,6.032,0,0,1,.549-.732.017.017,0,0,1,.02-.006.021.021,0,0,1,.013.016,5.369,5.369,0,0,1-.076,1.384.266.266,0,0,0,.4.274,4.347,4.347,0,0,1,2.046-.685.02.02,0,0,1,.018.01.017.017,0,0,1,0,.02m.609-1.387a4.332,4.332,0,0,1-1.249.855,3.334,3.334,0,0,1-1.127.281h0a.021.021,0,0,1-.018-.016,3.891,3.891,0,0,1,.445-2.451,5.934,5.934,0,0,1,.473-.779.017.017,0,0,1,.019-.009.022.022,0,0,1,.015.016,5.531,5.531,0,0,1,.072,1.386.263.263,0,0,0,.139.257.268.268,0,0,0,.293-.026,4.357,4.357,0,0,1,1.964-.89.019.019,0,0,1,.018.008.016.016,0,0,1,0,.018,6.326,6.326,0,0,1-1.041,1.35m1.474-2.845a4.3,4.3,0,0,1-1.138.991,3.277,3.277,0,0,1-1.084.409h0a.019.019,0,0,1-.018-.015,3.947,3.947,0,0,1,.146-2.521,5.6,5.6,0,0,1,.366-.791.019.019,0,0,1,.018-.009.018.018,0,0,1,.016.014,6.054,6.054,0,0,1,.247,1.371.266.266,0,0,0,.457.167,3.883,3.883,0,0,1,1.573-1.064c.091-.031.19-.059.285-.081a.02.02,0,0,1,.019.006.019.019,0,0,1,0,.019,6.263,6.263,0,0,1-.891,1.5m1.126-2.974a4.273,4.273,0,0,1-1.034,1.1,3.238,3.238,0,0,1-1.04.51h0a.02.02,0,0,1-.017-.011,4.163,4.163,0,0,1-.109-2.533,6.346,6.346,0,0,1,.285-.886.016.016,0,0,1,.017-.011h0a.02.02,0,0,1,.017.011,6,6,0,0,1,.387,1.413.266.266,0,0,0,.471.133,4.3,4.3,0,0,1,1.724-1.28.019.019,0,0,1,.02,0,.021.021,0,0,1,.005.019,6.309,6.309,0,0,1-.722,1.538m.823-3.1a4.229,4.229,0,0,1-.887,1.213,3.241,3.241,0,0,1-.965.633h-.007a.021.021,0,0,1-.016-.009,4.09,4.09,0,0,1-.436-2.55,5.837,5.837,0,0,1,.183-.9.019.019,0,0,1,.034,0,6.092,6.092,0,0,1,.56,1.383.268.268,0,0,0,.217.2.263.263,0,0,0,.267-.121,4.268,4.268,0,0,1,1.554-1.484.019.019,0,0,1,.02,0,.021.021,0,0,1,.008.018,6.254,6.254,0,0,1-.526,1.616" transform="translate(-7.846 -363.375)"/>
      <path id="Trazado_145" data-name="Trazado 145" d="M47.753,378.06a4.448,4.448,0,0,1,1.737.384l.084.014a14.788,14.788,0,0,0,1.615.195c.056,0,.112.006.167.008a4.9,4.9,0,0,1-.9-.412c-.175-.091-.349-.19-.554-.283a6.026,6.026,0,0,0-1.392-.428.185.185,0,0,1,0-.366l3.151-.472-3.147-.451a.183.183,0,0,1-.071-.336,4.206,4.206,0,0,1,1.232-.482A14.824,14.824,0,0,0,51.237,375c.052-.017.1-.038.157-.057a4.971,4.971,0,0,1-.992-.035c-.192-.019-.391-.041-.62-.048a6.066,6.066,0,0,0-1.449.137.181.181,0,0,1-.137-.332l2.73-1.637-3.081.784a.183.183,0,0,1-.194-.281,4.273,4.273,0,0,1,.954-.919,14.894,14.894,0,0,0,1.28-1.006c.042-.037.083-.075.123-.113a4.968,4.968,0,0,1-.929.348c-.19.057-.381.113-.591.192a6.007,6.007,0,0,0-1.286.684.183.183,0,0,1-.255-.256l1.9-2.56L46.3,371.808a.181.181,0,0,1-.285-.186,4.265,4.265,0,0,1,.528-1.214,14.44,14.44,0,0,0,.794-1.419c.025-.048.048-.1.07-.151a5.043,5.043,0,0,1-.725.678c-.155.126-.309.25-.473.4a6.009,6.009,0,0,0-.926,1.126.183.183,0,0,1-.333-.139l.777-3.086L44.1,370.555a.18.18,0,0,1-.336-.056,4.26,4.26,0,0,1,.023-1.324,14.4,14.4,0,0,0,.189-1.616c0-.055.005-.112.006-.167a4.86,4.86,0,0,1-.41.9c-.091.172-.188.348-.282.554a5.93,5.93,0,0,0-.423,1.4.183.183,0,0,1-.36,0l-.457-3.128-.441,3.126a.182.182,0,0,1-.335.07,4.248,4.248,0,0,1-.483-1.232,14.544,14.544,0,0,0-.438-1.565c-.018-.053-.037-.106-.058-.157a4.937,4.937,0,0,1-.036.992c-.021.194-.042.393-.048.618a6.1,6.1,0,0,0,.137,1.451.182.182,0,0,1-.333.137l-1.646-2.731.792,3.081a.183.183,0,0,1-.281.193,4.241,4.241,0,0,1-.914-.954,14.422,14.422,0,0,0-1.006-1.28c-.037-.043-.075-.084-.114-.125a4.845,4.845,0,0,1,.347.929c.056.183.113.38.192.592a5.933,5.933,0,0,0,.683,1.286.183.183,0,0,1-.255.256l-2.56-1.9,1.9,2.543a.181.181,0,0,1-.186.286,4.225,4.225,0,0,1-1.213-.53,15.054,15.054,0,0,0-1.418-.8c-.05-.025-.1-.048-.152-.07a4.909,4.909,0,0,1,.678.725c.123.154.25.308.4.474a6,6,0,0,0,1.124.926.183.183,0,0,1-.137.332l-3.091-.774,2.743,1.625a.183.183,0,0,1-.063.336,4.215,4.215,0,0,1-1.324-.024,14.456,14.456,0,0,0-1.615-.191l-.168-.008a4.953,4.953,0,0,1,.9.41c.163.091.346.183.555.282a6.033,6.033,0,0,0,1.394.425.183.183,0,0,1,0,.359l-3.153.463,3.154.457a.183.183,0,0,1,.071.335,4.277,4.277,0,0,1-1.232.486,14.906,14.906,0,0,0-1.565.443c-.053.017-.1.037-.157.057a4.9,4.9,0,0,1,.992.032c.047,0,.486.043.619.048.157.006.322,0,.49-.008l.037-.026a7.325,7.325,0,0,1,2.253-1.006.359.359,0,0,1,.457.31,5.024,5.024,0,0,1,.509-.257,7.512,7.512,0,0,1,2.367-.549.357.357,0,0,1,.294.113.36.36,0,0,1,.091.208,4.95,4.95,0,0,1,.805-.231,7.533,7.533,0,0,1,2.433-.034.366.366,0,0,1,.274.2.315.315,0,0,1,.031.091,4.866,4.866,0,0,1,.767-.053,7.545,7.545,0,0,1,2.388.457.358.358,0,0,1,.233.261.2.2,0,0,0,0,.021" transform="translate(-21.001 -365.372)" fill="#fec700"/>
      <path id="Trazado_146" data-name="Trazado 146" d="M55.238,381c3.063-.489,3.4.4,3.4.4a.267.267,0,0,0,.329.138s.208-.02.1-.269c0,0-.336-1.006-1.966-1.176a6.53,6.53,0,0,0-1.761.049c-.274.048-.348.649-.348.649-.037.27.24.211.24.211" transform="translate(-33.073 -372.299)"/>
      <path id="Trazado_147" data-name="Trazado 147" d="M46.43,383.216a3.755,3.755,0,0,0-1.228-.134,1.849,1.849,0,0,0-1.748.905c-.123.288.121.314.121.314a.312.312,0,0,0,.384-.161s.078-.244.649-.386a.709.709,0,1,0,1.371.262.693.693,0,0,0-.058-.274.907.907,0,0,1,.507.457c.049.1.155.144.42.144.284,0,.214-.183.214-.183a1.345,1.345,0,0,0-.629-.94" transform="translate(-26.879 -373.917)"/>
      <path id="Trazado_148" data-name="Trazado 148" d="M55.126,384.339c.264,0,.37-.044.42-.144a.914.914,0,0,1,.507-.457.709.709,0,1,0,1.362.279.685.685,0,0,0-.051-.261c.571.141.649.384.649.384a.311.311,0,0,0,.384.161s.244-.025.121-.314a1.847,1.847,0,0,0-1.748-.905,3.752,3.752,0,0,0-1.228.134,1.348,1.348,0,0,0-.63.939s-.068.183.215.183" transform="translate(-33.026 -373.917)"/>
      <path id="Trazado_149" data-name="Trazado 149" d="M42.472,381.538a.267.267,0,0,0,.329-.139s.337-.884,3.4-.4c0,0,.274.058.24-.211,0,0-.077-.6-.348-.649a6.481,6.481,0,0,0-1.76-.049c-1.63.174-1.967,1.177-1.967,1.177-.1.248.1.268.1.268" transform="translate(-26.302 -372.298)"/>
      <path id="Trazado_150" data-name="Trazado 150" d="M77.886,484.8a4.377,4.377,0,0,0-2.143.285.267.267,0,0,1-.344-.349,5.626,5.626,0,0,0,.341-1.331.018.018,0,0,0-.01-.019.017.017,0,0,0-.02,0,5.73,5.73,0,0,0-.681.664,3.352,3.352,0,0,0-.921,2.357.021.021,0,0,0,.016.018,2.5,2.5,0,0,0,.416.031,3.218,3.218,0,0,0,.633-.064,5.722,5.722,0,0,0,2.724-1.559.024.024,0,0,0,.005-.021.021.021,0,0,0-.016-.013" transform="translate(-43.302 -427.975)" fill="#58a333"/>
      <path id="Trazado_151" data-name="Trazado 151" d="M26.185,483.343a.018.018,0,0,0-.031.016,5.093,5.093,0,0,0,.326,1.349.266.266,0,0,1-.343.349,4.322,4.322,0,0,0-2.145-.286.018.018,0,0,0-.016.012.017.017,0,0,0,.006.018,5.759,5.759,0,0,0,2.725,1.563,3.234,3.234,0,0,0,.632.064,2.316,2.316,0,0,0,.417-.033.02.02,0,0,0,.016-.016,3.955,3.955,0,0,0-1.587-3.037" transform="translate(-16.474 -427.954)" fill="#58a333"/>
      <path id="Trazado_152" data-name="Trazado 152" d="M82.329,479.529a4.359,4.359,0,0,0-2.047.688.266.266,0,0,1-.4-.274,5.513,5.513,0,0,0,.076-1.393.019.019,0,0,0-.013-.016.017.017,0,0,0-.02.006,5.975,5.975,0,0,0-.549.731,3.944,3.944,0,0,0-.7,2.407.018.018,0,0,0,.018.017h.126a3.361,3.361,0,0,0,1.025-.169,4.344,4.344,0,0,0,1.333-.727,6.364,6.364,0,0,0,1.178-1.242.018.018,0,0,0,0-.019.017.017,0,0,0-.017-.011" transform="translate(-45.739 -425.38)" fill="#58a333"/>
      <path id="Trazado_153" data-name="Trazado 153" d="M86.106,473.9a4.354,4.354,0,0,0-1.963.9.266.266,0,0,1-.432-.233,5.549,5.549,0,0,0-.071-1.394.022.022,0,0,0-.015-.016.017.017,0,0,0-.019.009,5.936,5.936,0,0,0-.473.784,3.925,3.925,0,0,0-.445,2.469.02.02,0,0,0,.019.016h0a3.322,3.322,0,0,0,1.127-.283,4.3,4.3,0,0,0,1.249-.859,6.351,6.351,0,0,0,1.042-1.36.016.016,0,0,0,0-.018.021.021,0,0,0-.019-.009" transform="translate(-47.869 -422.428)" fill="#58a333"/>
      <path id="Trazado_154" data-name="Trazado 154" d="M89.2,467.8c-.091.022-.19.049-.285.081a3.861,3.861,0,0,0-1.573,1.071.266.266,0,0,1-.457-.168,6.217,6.217,0,0,0-.249-1.384.016.016,0,0,0-.016-.012.017.017,0,0,0-.018.009,5.515,5.515,0,0,0-.366.8,3.991,3.991,0,0,0-.146,2.536.018.018,0,0,0,.018.015h0a3.263,3.263,0,0,0,1.083-.411,4.3,4.3,0,0,0,1.138-1,6.343,6.343,0,0,0,.892-1.511.018.018,0,0,0-.021-.025" transform="translate(-49.633 -419.327)" fill="#58a333"/>
      <path id="Trazado_155" data-name="Trazado 155" d="M91.483,461.445a4.318,4.318,0,0,0-1.724,1.292.266.266,0,0,1-.471-.133,6.052,6.052,0,0,0-.386-1.421.018.018,0,0,0-.017-.011.019.019,0,0,0-.017.011,6.475,6.475,0,0,0-.285.89,4.214,4.214,0,0,0,.109,2.55.017.017,0,0,0,.017.011h0a3.3,3.3,0,0,0,1.04-.514,4.3,4.3,0,0,0,1.032-1.1,6.322,6.322,0,0,0,.722-1.547.02.02,0,0,0,0-.019.028.028,0,0,0-.021,0" transform="translate(-50.97 -415.983)" fill="#58a333"/>
      <path id="Trazado_156" data-name="Trazado 156" d="M93.056,454.884a4.3,4.3,0,0,0-1.554,1.493.266.266,0,0,1-.484-.078,6.1,6.1,0,0,0-.559-1.391.019.019,0,0,0-.035,0,5.877,5.877,0,0,0-.183.9,4.144,4.144,0,0,0,.436,2.565.021.021,0,0,0,.016.009H90.7a3.24,3.24,0,0,0,.965-.64,4.233,4.233,0,0,0,.887-1.221,6.259,6.259,0,0,0,.523-1.624.017.017,0,0,0-.007-.018.019.019,0,0,0-.02,0" transform="translate(-51.918 -412.601)" fill="#58a333"/>
      <path id="Trazado_157" data-name="Trazado 157" d="M92.477,449.624a.267.267,0,0,1-.493-.03,4.663,4.663,0,0,0-.688-1.264.018.018,0,0,0-.019-.006.022.022,0,0,0-.014.016,5.319,5.319,0,0,0-.1.914,3.9,3.9,0,0,0,.719,2.448.02.02,0,0,0,.016.007h.009a3.228,3.228,0,0,0,.89-.74,4.218,4.218,0,0,0,.743-1.307,6.239,6.239,0,0,0,.337-1.674.018.018,0,0,0-.009-.018.021.021,0,0,0-.02,0,4.264,4.264,0,0,0-1.371,1.652" transform="translate(-52.433 -408.881)" fill="#58a333"/>
      <path id="Trazado_158" data-name="Trazado 158" d="M92.508,443.034a.259.259,0,0,1-.253-.147,5.556,5.556,0,0,0-.786-1.14.016.016,0,0,0-.02-.005.019.019,0,0,0-.012.016,4.767,4.767,0,0,0,.925,3.232.037.037,0,0,0,.014.006.014.014,0,0,0,.011,0,3.257,3.257,0,0,0,.812-.823,4.22,4.22,0,0,0,.61-1.371,6.258,6.258,0,0,0,.17-1.7.018.018,0,0,0-.011-.016.016.016,0,0,0-.02,0,4.237,4.237,0,0,0-1.2,1.773.274.274,0,0,1-.238.175" transform="translate(-52.575 -405.177)" fill="#58a333"/>
      <path id="Trazado_159" data-name="Trazado 159" d="M92.091,436.174a.265.265,0,0,1-.266-.122,5.543,5.543,0,0,0-.868-1.035.018.018,0,0,0-.021,0,.021.021,0,0,0-.01.019,4.879,4.879,0,0,0,1.2,3.108h.024a3.219,3.219,0,0,0,.74-.908,4.22,4.22,0,0,0,.472-1.427,6.257,6.257,0,0,0,0-1.708c0-.007-.006-.012-.013-.015a.017.017,0,0,0-.019,0,4.247,4.247,0,0,0-1.023,1.886.267.267,0,0,1-.218.2" transform="translate(-52.302 -401.414)" fill="#58a333"/>
      <path id="Trazado_160" data-name="Trazado 160" d="M91.1,429.587a.268.268,0,0,1-.274-.109,5.583,5.583,0,0,0-.946-1.018.018.018,0,0,0-.021,0,.021.021,0,0,0-.01.017,6.644,6.644,0,0,0,.157.906,4.134,4.134,0,0,0,1.229,2.161h.021a3.226,3.226,0,0,0,.687-.932,4.206,4.206,0,0,0,.405-1.446,6.229,6.229,0,0,0-.078-1.706.017.017,0,0,0-.014-.015.019.019,0,0,0-.019.005,4.25,4.25,0,0,0-.933,1.93.261.261,0,0,1-.207.206" transform="translate(-51.73 -397.841)" fill="#58a333"/>
      <path id="Trazado_161" data-name="Trazado 161" d="M89.468,422.986a.265.265,0,0,1-.285-.071,5.579,5.579,0,0,0-1.092-.89.016.016,0,0,0-.02,0,.017.017,0,0,0-.007.018,6.019,6.019,0,0,0,.264.868,3.958,3.958,0,0,0,1.544,1.989h.007a.023.023,0,0,0,.018-.006,3.209,3.209,0,0,0,.549-1.012,4.219,4.219,0,0,0,.2-1.489,6.259,6.259,0,0,0-.312-1.68.017.017,0,0,0-.016-.012.018.018,0,0,0-.018.008,4.239,4.239,0,0,0-.658,2.038.263.263,0,0,1-.176.233" transform="translate(-50.773 -394.217)" fill="#58a333"/>
      <path id="Trazado_162" data-name="Trazado 162" d="M86.848,416.558a5.763,5.763,0,0,0-1.178-.773.019.019,0,0,0-.02,0,.018.018,0,0,0-.005.019,6.014,6.014,0,0,0,.353.835,3.994,3.994,0,0,0,1.743,1.823h.009a.018.018,0,0,0,.016-.008,3.222,3.222,0,0,0,.441-1.062,4.211,4.211,0,0,0,.047-1.5,6.263,6.263,0,0,0-.485-1.638.019.019,0,0,0-.016-.011.016.016,0,0,0-.017.01,4.221,4.221,0,0,0-.443,2.094.265.265,0,0,1-.443.208" transform="translate(-49.476 -390.741)" fill="#58a333"/>
      <path id="Trazado_163" data-name="Trazado 163" d="M82.535,409.929a.019.019,0,0,0,0,.019,5.223,5.223,0,0,0,.437.823,3.922,3.922,0,0,0,2,1.627h0a.019.019,0,0,0,.016-.01,3.194,3.194,0,0,0,.313-1.1,4.189,4.189,0,0,0-.132-1.5,6.41,6.41,0,0,0-.675-1.577.019.019,0,0,0-.035,0,4.205,4.205,0,0,0-.194,2.127.266.266,0,0,1-.43.249,4.266,4.266,0,0,0-1.287-.667.025.025,0,0,0-.016.008" transform="translate(-47.81 -387.488)" fill="#58a333"/>
      <path id="Trazado_164" data-name="Trazado 164" d="M78.756,404.649a.019.019,0,0,0,0,.02,5.952,5.952,0,0,0,.611.765,4.037,4.037,0,0,0,2.183,1.285h0a.02.02,0,0,0,.019-.012,3.117,3.117,0,0,0,.13-1.138,4.205,4.205,0,0,0-.372-1.456,6.282,6.282,0,0,0-.9-1.422.017.017,0,0,0-.019-.006.018.018,0,0,0-.014.014,4.687,4.687,0,0,0,.133,2.109.266.266,0,0,1-.406.3,3.023,3.023,0,0,0-1.349-.464.016.016,0,0,0-.018.008" transform="translate(-45.789 -384.521)" fill="#58a333"/>
      <path id="Trazado_165" data-name="Trazado 165" d="M76.08,400.08a.265.265,0,0,1-.3.068,4.125,4.125,0,0,0-1.3-.24h-.1a.017.017,0,0,0-.016.011.019.019,0,0,0,0,.02,6.949,6.949,0,0,0,.767.69,3.858,3.858,0,0,0,2.238.894h.045a.018.018,0,0,0,.018-.016,3.43,3.43,0,0,0-.074-1.171,4.384,4.384,0,0,0-.6-1.385,6.341,6.341,0,0,0-1.109-1.264.018.018,0,0,0-.019,0,.023.023,0,0,0-.012.017,4.22,4.22,0,0,0,.493,2.075.274.274,0,0,1-.038.3" transform="translate(-43.443 -381.829)" fill="#58a333"/>
      <path id="Trazado_166" data-name="Trazado 166" d="M23.257,481.712h.126a.02.02,0,0,0,.018-.017,4.871,4.871,0,0,0-1.269-3.125.019.019,0,0,0-.019-.005.02.02,0,0,0-.014.016,4.388,4.388,0,0,0,.091,1.366.267.267,0,0,1-.1.282.263.263,0,0,1-.3.009,4.33,4.33,0,0,0-2.048-.69.017.017,0,0,0-.018.01.019.019,0,0,0,0,.02A6.368,6.368,0,0,0,20.9,480.82a4.328,4.328,0,0,0,1.333.727,3.357,3.357,0,0,0,1.025.17" transform="translate(-14.195 -425.397)" fill="#58a333"/>
      <path id="Trazado_167" data-name="Trazado 167" d="M19.592,476.438h0a.018.018,0,0,0,.019-.015,4.109,4.109,0,0,0-.452-2.447,6.279,6.279,0,0,0-.468-.794.019.019,0,0,0-.019-.007.02.02,0,0,0-.014.014,4.817,4.817,0,0,0-.07,1.38.266.266,0,0,1-.43.24,4.339,4.339,0,0,0-1.964-.9.017.017,0,0,0-.019.008.016.016,0,0,0,0,.018,6.344,6.344,0,0,0,1.041,1.36,4.275,4.275,0,0,0,1.249.859,3.252,3.252,0,0,0,1.126.283" transform="translate(-12.297 -422.439)" fill="#58a333"/>
      <path id="Trazado_168" data-name="Trazado 168" d="M16.423,470.815h0a.02.02,0,0,0,.019-.015,3.882,3.882,0,0,0-.139-2.53,5.407,5.407,0,0,0-.383-.823.019.019,0,0,0-.018-.01.023.023,0,0,0-.016.012,5.519,5.519,0,0,0-.242,1.394.266.266,0,0,1-.457.183A4.4,4.4,0,0,0,13.605,468l-.265-.091a.017.017,0,0,0-.019.006.019.019,0,0,0,0,.019A6.3,6.3,0,0,0,14.2,469.4a4.324,4.324,0,0,0,1.138,1,3.3,3.3,0,0,0,1.087.411" transform="translate(-10.772 -419.356)" fill="#58a333"/>
      <path id="Trazado_169" data-name="Trazado 169" d="M13.96,464.807h0a.021.021,0,0,0,.019-.012,4.153,4.153,0,0,0-.125-3.4.017.017,0,0,0-.016-.011h0a.019.019,0,0,0-.016.011,5.485,5.485,0,0,0-.411,1.371.274.274,0,0,1-.194.221.267.267,0,0,1-.274-.091,4.4,4.4,0,0,0-1.45-1.2c-.084-.043-.169-.083-.254-.118a.015.015,0,0,0-.02,0,.017.017,0,0,0-.005.018c.726,2.4,2.162,3.044,2.743,3.211" transform="translate(-9.643 -416.096)" fill="#58a333"/>
      <path id="Trazado_170" data-name="Trazado 170" d="M11.1,457.931a3.275,3.275,0,0,0,1,.608H12.1a.015.015,0,0,0,.015-.01,3.555,3.555,0,0,0,.445-2.612,3.807,3.807,0,0,0-.287-.848.017.017,0,0,0-.016-.01.019.019,0,0,0-.017.009,5.542,5.542,0,0,0-.542,1.393h0a.263.263,0,0,1-.209.2.267.267,0,0,1-.274-.112,4.27,4.27,0,0,0-1.6-1.441.016.016,0,0,0-.019,0,.019.019,0,0,0-.006.019,6.256,6.256,0,0,0,.58,1.607,4.275,4.275,0,0,0,.929,1.189" transform="translate(-8.774 -412.693)" fill="#58a333"/>
      <path id="Trazado_171" data-name="Trazado 171" d="M11.074,451.854h.006c.01,0,.015,0,.018-.007a4.1,4.1,0,0,0,.754-3.349.017.017,0,0,0-.014-.015.018.018,0,0,0-.019.006,5.443,5.443,0,0,0-.76,1.26.266.266,0,0,1-.242.164h0a.265.265,0,0,1-.242-.159,4.358,4.358,0,0,0-1.107-1.515c-.071-.062-.145-.121-.219-.177a.02.02,0,0,0-.03.017c.108,2.494,1.335,3.474,1.859,3.774" transform="translate(-8.574 -408.931)" fill="#58a333"/>
      <path id="Trazado_172" data-name="Trazado 172" d="M10.955,445.134h.011a.019.019,0,0,0,.013-.005,3.173,3.173,0,0,0,.914-1.8,4.931,4.931,0,0,0,0-1.554.018.018,0,0,0-.013-.016.021.021,0,0,0-.019,0,2.306,2.306,0,0,0-.68,1.184.266.266,0,0,1-.516.038,4.324,4.324,0,0,0-.941-1.621c-.065-.069-.132-.136-.2-.2a.014.014,0,0,0-.019,0,.02.02,0,0,0-.012.015c-.156,2.508.97,3.6,1.463,3.956" transform="translate(-8.715 -405.219)" fill="#58a333"/>
      <path id="Trazado_173" data-name="Trazado 173" d="M10.483,437.235a3.245,3.245,0,0,0,.727.9.022.022,0,0,0,.013,0,.033.033,0,0,0,.013,0,3.814,3.814,0,0,0,1.11-2.248,5.989,5.989,0,0,0,.078-.94.018.018,0,0,0-.011-.016.02.02,0,0,0-.02,0,3.9,3.9,0,0,0-.83,1.1.266.266,0,0,1-.5-.048,4.238,4.238,0,0,0-1.023-1.886.016.016,0,0,0-.019,0,.019.019,0,0,0-.013.015,6.308,6.308,0,0,0,0,1.707,4.138,4.138,0,0,0,.471,1.429" transform="translate(-8.969 -401.413)" fill="#58a333"/>
      <path id="Trazado_174" data-name="Trazado 174" d="M11.29,430.521a3.221,3.221,0,0,0,.677.922.02.02,0,0,0,.012.005.021.021,0,0,0,.013-.005,4.226,4.226,0,0,0,1.317-2.263,4.76,4.76,0,0,0,.114-.829.019.019,0,0,0-.01-.018.021.021,0,0,0-.02,0,5.509,5.509,0,0,0-.984,1.05.267.267,0,0,1-.274.109.274.274,0,0,1-.208-.208,4.256,4.256,0,0,0-.933-1.93.018.018,0,0,0-.019-.005.02.02,0,0,0-.014.015,6.231,6.231,0,0,0-.078,1.706,4.192,4.192,0,0,0,.4,1.448" transform="translate(-9.454 -397.791)" fill="#58a333"/>
      <path id="Trazado_175" data-name="Trazado 175" d="M13.226,424.83a.018.018,0,0,0,.015.008h.01a3.832,3.832,0,0,0,1.646-2.1,4.1,4.1,0,0,0,.183-.836.02.02,0,0,0-.008-.017.021.021,0,0,0-.019,0,4.755,4.755,0,0,0-1.137.943.263.263,0,0,1-.285.083.266.266,0,0,1-.183-.232,4.219,4.219,0,0,0-.686-2.03.019.019,0,0,0-.018-.009.021.021,0,0,0-.016.013,6.321,6.321,0,0,0-.289,1.688,4.166,4.166,0,0,0,.222,1.485,3.207,3.207,0,0,0,.564,1.006" transform="translate(-10.297 -394.181)" fill="#58a333"/>
      <path id="Trazado_176" data-name="Trazado 176" d="M15.207,418.436a.019.019,0,0,0,.016.009h.008a4.073,4.073,0,0,0,2.187-2.663.018.018,0,0,0-.005-.018.019.019,0,0,0-.019,0,5.533,5.533,0,0,0-1.248.789.262.262,0,0,1-.29.039.267.267,0,0,1-.15-.252,4.214,4.214,0,0,0-.424-2.1.017.017,0,0,0-.017-.01h0a.022.022,0,0,0-.017.01,6.264,6.264,0,0,0-.5,1.637,4.168,4.168,0,0,0,.033,1.5,3.17,3.17,0,0,0,.428,1.064" transform="translate(-11.507 -390.729)" fill="#58a333"/>
      <path id="Trazado_177" data-name="Trazado 177" d="M17.874,412.41a.018.018,0,0,0,.017.01h0a3.868,3.868,0,0,0,2.028-1.52,6.138,6.138,0,0,0,.522-.87.019.019,0,0,0-.019-.027,2.592,2.592,0,0,0-1.3.634.266.266,0,0,1-.448-.24,4.206,4.206,0,0,0-.1-2.138.019.019,0,0,0-.034,0A6.254,6.254,0,0,0,17.8,409.8a4.2,4.2,0,0,0-.193,1.488,3.214,3.214,0,0,0,.271,1.118" transform="translate(-13.064 -387.513)" fill="#58a333"/>
      <path id="Trazado_178" data-name="Trazado 178" d="M21.363,406.694h0a4.8,4.8,0,0,0,2.77-2.052.018.018,0,0,0,0-.019.02.02,0,0,0-.018-.01,3.073,3.073,0,0,0-1.33.463.266.266,0,0,1-.4-.3,4.193,4.193,0,0,0,.155-2.132.018.018,0,0,0-.033-.007c-1.613,1.94-1.35,3.474-1.164,4.049a.026.026,0,0,0,.018.011" transform="translate(-14.99 -384.489)" fill="#58a333"/>
      <path id="Trazado_179" data-name="Trazado 179" d="M25.39,401.531h.091a3.8,3.8,0,0,0,2.1-.9,8.37,8.37,0,0,0,.787-.691.019.019,0,0,0,0-.021.02.02,0,0,0-.018-.01,5.317,5.317,0,0,0-1.335.242.266.266,0,0,1-.322-.375,4.194,4.194,0,0,0,.494-2.08.018.018,0,0,0-.011-.017.022.022,0,0,0-.02,0,6.435,6.435,0,0,0-1.144,1.288,4.227,4.227,0,0,0-.6,1.381,3.156,3.156,0,0,0-.051,1.166.019.019,0,0,0,.018.016" transform="translate(-17.203 -381.826)" fill="#58a333"/>
      <path id="Trazado_180" data-name="Trazado 180" d="M33.339,395.9a5.759,5.759,0,0,0-1.371.082.266.266,0,0,1-.274-.406,4.215,4.215,0,0,0,.694-2.023.019.019,0,0,0-.01-.017.016.016,0,0,0-.019,0c-2.047,1.473-2.194,3.022-2.159,3.62a.018.018,0,0,0,.017.017h.133a5.211,5.211,0,0,0,3-1.247.021.021,0,0,0,.006-.021.02.02,0,0,0-.016-.012" transform="translate(-19.801 -379.599)" fill="#58a333"/>
      <path id="Trazado_181" data-name="Trazado 181" d="M38.675,393.364a4.58,4.58,0,0,0-.715-.149,5.531,5.531,0,0,0-.678-.048h0a.266.266,0,0,1-.174-.467,4.328,4.328,0,0,0,1.2-1.53.019.019,0,0,0,0-.021.018.018,0,0,0-.019-.006c-2.382.806-2.9,2.194-3.017,2.758a.017.017,0,0,0,.013.02,3.434,3.434,0,0,0,.946.126,4.9,4.9,0,0,0,1.6-.292,6.893,6.893,0,0,0,.848-.359.02.02,0,0,0,.01-.018.028.028,0,0,0-.015-.015" transform="translate(-22.518 -378.308)" fill="#58a333"/>
      <path id="Trazado_182" data-name="Trazado 182" d="M44.807,391.935a5.7,5.7,0,0,0-1.326-.444.267.267,0,0,1-.069-.5,3.657,3.657,0,0,0,1.371-1.045.02.02,0,0,0,0-.021.021.021,0,0,0-.019-.009,4.914,4.914,0,0,0-2.8,1.195,2.476,2.476,0,0,0-.56.816.019.019,0,0,0,.01.024,3.792,3.792,0,0,0,1.592.325,5.3,5.3,0,0,0,.92-.083,6.154,6.154,0,0,0,.88-.222.018.018,0,0,0,.013-.016.017.017,0,0,0-.01-.017" transform="translate(-25.799 -377.647)" fill="#58a333"/>
      <path id="Trazado_183" data-name="Trazado 183" d="M50.261,391.039a.266.266,0,0,1,.016-.5,4.616,4.616,0,0,0,1.517-.738.019.019,0,0,0,.006-.019.02.02,0,0,0-.017-.014,4.909,4.909,0,0,0-2.934.577,2.49,2.49,0,0,0-.731.68.019.019,0,0,0,0,.026,4.433,4.433,0,0,0,2.671.758,6.6,6.6,0,0,0,.662-.032.018.018,0,0,0,.016-.012.019.019,0,0,0-.005-.02,4.607,4.607,0,0,0-1.2-.7" transform="translate(-29.394 -377.558)" fill="#58a333"/>
      <path id="Trazado_184" data-name="Trazado 184" d="M57.047,391.627a.266.266,0,0,1,.118-.484,5.387,5.387,0,0,0,1.616-.426.019.019,0,0,0,.011-.018.016.016,0,0,0-.014-.016,4.887,4.887,0,0,0-2.96-.017,2.525,2.525,0,0,0-.855.522.02.02,0,0,0,0,.026,4.213,4.213,0,0,0,3.129,1.426h0a.017.017,0,0,0,.016-.01.018.018,0,0,0,0-.019,5.527,5.527,0,0,0-1.059-.984" transform="translate(-33.055 -377.934)" fill="#58a333"/>
      <path id="Trazado_185" data-name="Trazado 185" d="M72.5,397.634a.02.02,0,0,0,.018-.019,3.531,3.531,0,0,0-.23-1.3,3.285,3.285,0,0,0-2.161-1.92.021.021,0,0,0-.019.005.022.022,0,0,0,0,.019,5.492,5.492,0,0,0,.848,1.593.266.266,0,0,1-.269.425,3.666,3.666,0,0,0-1.36-.02.018.018,0,0,0-.006.033,6.314,6.314,0,0,0,3.045,1.189h.14" transform="translate(-40.732 -380.06)" fill="#58a333"/>
      <path id="Trazado_186" data-name="Trazado 186" d="M67.115,396.18a.019.019,0,0,0,0-.016,2.737,2.737,0,0,0-2.261-.864,3.975,3.975,0,0,0-.968.183.018.018,0,0,0-.013.014.022.022,0,0,0,.007.019,3.638,3.638,0,0,0,2.245.842h.127a2.98,2.98,0,0,0,.855-.16.018.018,0,0,0,.013-.015" transform="translate(-37.823 -380.54)" fill="#58a333"/>
      <path id="Trazado_187" data-name="Trazado 187" d="M61.435,392.5a.017.017,0,0,0,.007.016,2.821,2.821,0,0,0,1.664.482,4.742,4.742,0,0,0,.869-.086,6.77,6.77,0,0,0,1.183-.345.02.02,0,0,0,.012-.016.016.016,0,0,0-.01-.016,4.161,4.161,0,0,0-1.325-.478,3.52,3.52,0,0,0-1.412.044,3.7,3.7,0,0,0-.98.384.019.019,0,0,0-.009.016" transform="translate(-36.521 -378.773)" fill="#58a333"/>
      <path id="Trazado_188" data-name="Trazado 188" d="M42.187,429.7a.9.9,0,0,0,.744.266h3.453c-2.073-1.286-2.834-1.054-4.281-.4a.663.663,0,0,0,.083.131" transform="translate(-26.175 -398.691)" fill="#e63312"/>
      <path id="Trazado_189" data-name="Trazado 189" d="M50.522,416.613a8.171,8.171,0,0,1-.9-.274,9.208,9.208,0,0,1-2.018-1.166.507.507,0,0,1,.629-.794,8.2,8.2,0,0,0,1.765,1.019,6.937,6.937,0,0,0,.785.237,7.153,7.153,0,0,1,1.4.479c-.091-.571-.183-1.058-.274-1.522a6.954,6.954,0,0,1-2.6-1.292.506.506,0,1,1,.645-.78,6.381,6.381,0,0,0,1.671.937,19.63,19.63,0,0,0-1.521-3.931,3.486,3.486,0,0,0-2.047-1.813,3.292,3.292,0,0,0-1.172-.172h-.048a3.963,3.963,0,0,0-2.724,1.257.291.291,0,0,1-.024.027,3.173,3.173,0,0,0-.79,1.269.5.5,0,0,0,.175.543c.072.04.342.147.815-.183.117-.1.193-.152.213-.165a.506.506,0,0,1,.617.8c-.066.056-.133.109-.2.158a7.2,7.2,0,0,0-1.1,1.2,10.983,10.983,0,0,0-1.881,4.417c-.009.043-.016.086-.023.126,1.437-.622,2.6-.881,5.161.771a4.838,4.838,0,0,0,2.377.695h1.168a2.182,2.182,0,0,0,1.518-.442.785.785,0,0,0,.152-.249c-.026-.6-.57-.841-1.774-1.158" transform="translate(-26.075 -387.145)" fill="#e63312"/>
      <path id="Trazado_190" data-name="Trazado 190" d="M47.493,468.755a.756.756,0,0,0,.293-.4.318.318,0,0,0-.134-.211A.522.522,0,0,0,47.3,468a2.1,2.1,0,0,0-1.015.495c-.289.2-.769.6-.731.968a.307.307,0,0,0,.133.252,1.463,1.463,0,0,0,.878.08,2.584,2.584,0,0,1,.928-1.042" transform="translate(-28.021 -419.651)" fill="#fac182"/>
      <path id="Trazado_191" data-name="Trazado 191" d="M51.361,470.612c0-.028.012-.109-.135-.252-.005-.005-.224-.173-.724.117a2.353,2.353,0,0,0-1,.891.478.478,0,0,0,.267.151,1.836,1.836,0,0,0,1.169-.413l.034-.023c.117-.075.366-.291.388-.47" transform="translate(-30.135 -420.888)" fill="#fac182"/>
      <path id="Trazado_192" data-name="Trazado 192" d="M40.411,465.68a.728.728,0,0,0-.1-.007,1.65,1.65,0,0,0-1.143.573c-.167.219-.112.348-.091.391.031.07.189.162.475.208.059.01.12.016.183.021a2.224,2.224,0,0,1,.656-.968c.074-.07.142-.132.208-.188a1.01,1.01,0,0,0-.149-.026H40.41" transform="translate(-24.54 -418.395)" fill="#fac182"/>
      <path id="Trazado_193" data-name="Trazado 193" d="M42.32,467.641c.007.081.028.3.464.444a2.145,2.145,0,0,0,.209.055,2.525,2.525,0,0,1,1.053-1.259c.077-.054.158-.112.245-.17a.183.183,0,0,0-.005-.081.465.465,0,0,0-.25-.221.623.623,0,0,0-.286-.069,1.582,1.582,0,0,0-.993.554c-.332.319-.45.521-.436.747" transform="translate(-26.291 -418.756)" fill="#fac182"/>
      <path id="Trazado_194" data-name="Trazado 194" d="M40.36,459.784a.862.862,0,0,0,.59-.2.722.722,0,0,0,.2-.407,10.355,10.355,0,0,0-2.277-2.093,8.683,8.683,0,0,0-1.554-.85,2.443,2.443,0,0,0-1.554-.158l-.026.005a2.117,2.117,0,0,0-.549.3c-.144.091-.307.2-.493.311a4.405,4.405,0,0,1-1.806.549,1.614,1.614,0,0,1-1.56-.493,1.075,1.075,0,0,1-.176-1.079c.133-.354.542-.553,1.061-.807a6.107,6.107,0,0,0,.613-.326,6.252,6.252,0,0,0,.586-.435c.189-.155.4-.33.755-.575a2.42,2.42,0,0,1,.457-.254c-.166-.023-.346-.043-.541-.06a3.283,3.283,0,0,0-2.3.844,14.007,14.007,0,0,1-4.524,1.431c-2.184.436-5.179.873-8.9,1.3.113.417.235.83.366,1.231a25.543,25.543,0,0,0,1.761,4.192c1.325-.586,4.581-2.052,7.116-3.407a2.45,2.45,0,0,1,1.855-.677,1.807,1.807,0,0,1,.973.375,1.554,1.554,0,0,1,1.189.084,1.323,1.323,0,0,1,.674.678h0a1.389,1.389,0,0,1,1.4.288,1.188,1.188,0,0,1,.432.731,1.225,1.225,0,0,1,1.07.289,1.168,1.168,0,0,1,.4.978,1.236,1.236,0,0,1-.2.537A1.457,1.457,0,0,0,36.1,462a1.321,1.321,0,0,0,.231-.117,4.155,4.155,0,0,0-.611-.89.448.448,0,0,1-.112-.321.434.434,0,0,1,.149-.305.442.442,0,0,1,.625.037,4.944,4.944,0,0,1,.81,1.228.678.678,0,0,0,.59-.183,1.037,1.037,0,0,0,.2-.281,2.949,2.949,0,0,0-.463-.653,7.144,7.144,0,0,0-1.006-.85.443.443,0,0,1-.108-.618.448.448,0,0,1,.287-.183.457.457,0,0,1,.331.074,7.964,7.964,0,0,1,1.172,1,3.85,3.85,0,0,1,.592.854.914.914,0,0,0,.731-.282.855.855,0,0,0,.132-.2,6.985,6.985,0,0,0-2.229-2,.444.444,0,0,1,.048-.819.457.457,0,0,1,.339.021,7.863,7.863,0,0,1,2.56,2.276" transform="translate(-13.466 -411.72)" fill="#fac182"/>
      <path id="Trazado_195" data-name="Trazado 195" d="M50.375,456.442a2.666,2.666,0,0,1,.843-.43c1.474-.4,2.994.591,3.812,1.123a11.024,11.024,0,0,1,2.348,2.111l.064.079.015.016.005.006a4.429,4.429,0,0,0,.771.689,30.793,30.793,0,0,0,5.9,3.109,25.618,25.618,0,0,0,1.843-4.332c.117-.366.229-.742.335-1.125a42.081,42.081,0,0,1-6.578-1.077c-1.961-.467-3.4-.92-3.463-.939-.4-.134-.752-.263-1.062-.376a6.765,6.765,0,0,0-2.56-.605q-.137.01-.274.011l-.345.009h-.014a2.782,2.782,0,0,0-1.659.336c-.325.229-.528.394-.7.538a7.009,7.009,0,0,1-.662.493,6.69,6.69,0,0,1-.706.379,4.052,4.052,0,0,0-.629.35c-.014.043-.018.092.078.224s.366.145.787.121a3.5,3.5,0,0,0,1.412-.426c.164-.091.308-.19.449-.282" transform="translate(-29.141 -412.518)" fill="#fac182"/>
    </g>
    <g id="Grupo_975" data-name="Grupo 975" transform="translate(622.203 848.768)">
      <path id="Trazado_255" data-name="Trazado 255" d="M131.752,470.52l-1.28-3.931h-5.33l-1.28,3.931h-2.415l4.592-13.648H129.6l4.592,13.648Zm-5.977-5.9h4.048l-2.029-6.2Z" transform="translate(-121.446 -456.103)" fill="#fff"/>
      <path id="Trazado_256" data-name="Trazado 256" d="M151.812,464.445H153.8l.183,1.309h.129a2.847,2.847,0,0,1,1.167-1.071,3.511,3.511,0,0,1,1.591-.359,4.981,4.981,0,0,1,.8.065v2.194a5.538,5.538,0,0,0-.941-.065,3.6,3.6,0,0,0-1.415.3,2.534,2.534,0,0,0-1.1.839V474.5h-2.415V464.447Z" transform="translate(-137.699 -460.093)" fill="#fff"/>
      <path id="Trazado_257" data-name="Trazado 257" d="M168.12,478.6a10.15,10.15,0,0,1-1.582-.318v-1.92a11.124,11.124,0,0,0,3.052.457,4.532,4.532,0,0,0,1.679-.261,1.808,1.808,0,0,0,.954-.843,3.269,3.269,0,0,0,.308-1.531v-.793h-.12a3.274,3.274,0,0,1-1.148.848,3.675,3.675,0,0,1-1.526.3,3.748,3.748,0,0,1-1.955-.519,3.643,3.643,0,0,1-1.4-1.622,6.406,6.406,0,0,1-.526-2.762,5.4,5.4,0,0,1,1.384-4.023,5.669,5.669,0,0,1,4.114-1.371,13.4,13.4,0,0,1,1.872.137,10.274,10.274,0,0,1,1.724.388v8.982a6.153,6.153,0,0,1-.568,2.834,3.459,3.459,0,0,1-1.71,1.605,7.158,7.158,0,0,1-2.906.512,13.727,13.727,0,0,1-1.648-.1Zm3.55-6.239a2.18,2.18,0,0,0,.862-.609v-5.486a6.265,6.265,0,0,0-1.384-.156A2.743,2.743,0,0,0,169,466.9a3.711,3.711,0,0,0-.715,2.527,3.786,3.786,0,0,0,.6,2.43,2.121,2.121,0,0,0,1.716.706,2.865,2.865,0,0,0,1.065-.2Z" transform="translate(-145.213 -460.053)" fill="#fff"/>
      <path id="Trazado_258" data-name="Trazado 258" d="M198.194,470.157h-6.222a3.557,3.557,0,0,0,.366,1.554,1.861,1.861,0,0,0,1,.836,5.161,5.161,0,0,0,1.8.257,10.678,10.678,0,0,0,2.527-.35v1.836a11.794,11.794,0,0,1-2.859.359,6.964,6.964,0,0,1-2.956-.549,3.576,3.576,0,0,1-1.729-1.692,6.705,6.705,0,0,1-.571-2.983,6.9,6.9,0,0,1,.526-2.85,3.749,3.749,0,0,1,1.521-1.747,4.663,4.663,0,0,1,2.407-.587,3.785,3.785,0,0,1,3.127,1.324,6.154,6.154,0,0,1,1.07,3.931v.656Zm-5.7-3.671a3.849,3.849,0,0,0-.535,2.221h3.974a3.994,3.994,0,0,0-.512-2.221,1.669,1.669,0,0,0-1.443-.665,1.751,1.751,0,0,0-1.485.666Z" transform="translate(-157.892 -460.05)" fill="#fff"/>
      <path id="Trazado_259" data-name="Trazado 259" d="M212.023,464.4h2l.166,1.061h.129a3.824,3.824,0,0,1,1.35-.9,4.406,4.406,0,0,1,1.665-.315,3.3,3.3,0,0,1,2.463.92,4,4,0,0,1,.9,2.9v6.4h-2.415V468.2a2,2,0,0,0-.424-1.434,1.667,1.667,0,0,0-1.236-.429,3.028,3.028,0,0,0-1.2.253,2.456,2.456,0,0,0-.986.762v7.109h-2.416V464.406Z" transform="translate(-169.922 -460.051)" fill="#fff"/>
      <path id="Trazado_260" data-name="Trazado 260" d="M240.445,468.562V470.5a7.8,7.8,0,0,1-1.743.2q-3.577,0-3.578-3.6v-4.715h-1.737v-1.927h1.737l.424-3.588h1.991v3.588h2.813v1.927H237.54v4.324a2.985,2.985,0,0,0,.189,1.172,1.194,1.194,0,0,0,.577.622,2.348,2.348,0,0,0,1.024.189,6.292,6.292,0,0,0,1.115-.128Z" transform="translate(-181.357 -456.104)" fill="#fff"/>
      <path id="Trazado_261" data-name="Trazado 261" d="M251.564,457.513a1.223,1.223,0,0,1-.383-.972,1.241,1.241,0,0,1,.383-.977,2.1,2.1,0,0,1,2.3,0,1.241,1.241,0,0,1,.382.977,1.224,1.224,0,0,1-.382.972,2.124,2.124,0,0,1-2.3,0Zm-.07,12.122V459.574h2.426v10.061Z" transform="translate(-190.88 -455.223)" fill="#fff"/>
      <path id="Trazado_262" data-name="Trazado 262" d="M262.235,464.4h2l.166,1.061h.129a3.828,3.828,0,0,1,1.35-.9,4.41,4.41,0,0,1,1.665-.315,3.291,3.291,0,0,1,2.462.92,4,4,0,0,1,.9,2.9v6.4h-2.416V468.2a2,2,0,0,0-.424-1.434,1.668,1.668,0,0,0-1.236-.429,3.026,3.026,0,0,0-1.2.253,2.46,2.46,0,0,0-.986.762v7.109h-2.415V464.406Z" transform="translate(-196.795 -460.051)" fill="#fff"/>
      <path id="Trazado_263" data-name="Trazado 263" d="M291.1,464.63a2.682,2.682,0,0,1,1.415,1.258,5.1,5.1,0,0,1,.465,2.377v6.2h-2l-.167-1.042h-.129a2.867,2.867,0,0,1-1.168.908,3.949,3.949,0,0,1-1.582.309,3.865,3.865,0,0,1-1.705-.35,2.544,2.544,0,0,1-1.1-.992,2.891,2.891,0,0,1-.381-1.508,2.615,2.615,0,0,1,.959-2.168,5.594,5.594,0,0,1,3.034-.931l1.882-.176v-.4a2.468,2.468,0,0,0-.244-1.2,1.354,1.354,0,0,0-.765-.622,4.259,4.259,0,0,0-1.4-.183,9.135,9.135,0,0,0-1.337.106,8.446,8.446,0,0,0-1.384.318v-1.853a9.119,9.119,0,0,1,1.526-.321,12.173,12.173,0,0,1,1.6-.112,6.713,6.713,0,0,1,2.481.383Zm-1.378,8.092a2.4,2.4,0,0,0,.9-.645v-2.14l-1.646.147a2.543,2.543,0,0,0-1.388.457,1.252,1.252,0,0,0-.437,1.018,1.292,1.292,0,0,0,.392,1.014,1.673,1.673,0,0,0,1.148.351,2.678,2.678,0,0,0,1.032-.2Z" transform="translate(-208.844 -460.053)" fill="#fff"/>
    </g>
  </g>
</svg>
