<svg xmlns="http://www.w3.org/2000/svg" width="144" height="32" viewBox="0 0 144 32">
  <g id="Logo" transform="translate(13)">
    <rect id="Rectángulo_3122" data-name="Rectángulo 3122" width="144" height="32" transform="translate(-13)" fill="none"/>
    <g id="LID-footer" transform="translate(7.188 2.132)">
      <path id="Trazado_2404" data-name="Trazado 2404" d="M90.361,73.021,88.679,70.58h-.814v2.442H86.4V66.51c.326-.054.651-.109,1.031-.163a7.272,7.272,0,0,1,1.085-.054,3.813,3.813,0,0,1,2.17.543,1.845,1.845,0,0,1,.705,1.628,1.875,1.875,0,0,1-1.3,1.9l1.9,2.659Zm-2.5-3.581c.217,0,.488.054.705.054a1.561,1.561,0,0,0,1.085-.271.931.931,0,0,0,.326-.814,1.1,1.1,0,0,0-.326-.814,1.735,1.735,0,0,0-1.031-.271,3.337,3.337,0,0,0-.76.054Z" transform="translate(-57.112 -60.813)" fill="#0072bb"/>
      <path id="Trazado_2405" data-name="Trazado 2405" d="M101.184,72.418H98.2a1.094,1.094,0,0,0,.163.6.844.844,0,0,0,.434.326,4.217,4.217,0,0,0,.868.109,4.926,4.926,0,0,0,1.248-.163v1.085a6.735,6.735,0,0,1-1.465.163,3.6,3.6,0,0,1-1.519-.271,1.6,1.6,0,0,1-.868-.814,3.636,3.636,0,0,1,0-2.822,1.974,1.974,0,0,1,.76-.868,2.017,2.017,0,0,1,1.248-.271,1.91,1.91,0,0,1,1.574.651,2.992,2.992,0,0,1,.543,1.9Zm-2.767-1.736a1.783,1.783,0,0,0-.217.922h1.628a1.783,1.783,0,0,0-.217-.922.792.792,0,0,0-1.194,0Z" transform="translate(-61.858 -62.272)" fill="#0072bb"/>
      <path id="Trazado_2406" data-name="Trazado 2406" d="M106.274,76.376V75.236a4.9,4.9,0,0,0,1.519.217,3.2,3.2,0,0,0,.76-.109.965.965,0,0,0,.434-.38,1.445,1.445,0,0,0,.163-.651v-.326H109.1a2.125,2.125,0,0,1-.543.434,1.671,1.671,0,0,1-.705.163,2.211,2.211,0,0,1-.977-.271,2.028,2.028,0,0,1-.705-.814,3.73,3.73,0,0,1-.271-1.3,2.648,2.648,0,0,1,.705-1.953,2.935,2.935,0,0,1,2.062-.651,5.9,5.9,0,0,1,.977.054,5.675,5.675,0,0,1,.922.217V74.1a3.506,3.506,0,0,1-.271,1.465,1.6,1.6,0,0,1-.868.814,3.6,3.6,0,0,1-1.519.271A7.848,7.848,0,0,1,106.274,76.376Zm2.5-3.039a1.36,1.36,0,0,0,.38-.217V70.733a2.225,2.225,0,0,0-.6-.054,1.473,1.473,0,0,0-.922.326,2.25,2.25,0,0,0-.054,2.116.985.985,0,0,0,.76.326C108.5,73.391,108.662,73.391,108.77,73.337Z" transform="translate(-66.026 -62.322)" fill="#0072bb"/>
      <path id="Trazado_2407" data-name="Trazado 2407" d="M116.417,66.914a.787.787,0,0,1,0-1.085,1.143,1.143,0,0,1,1.3,0,.787.787,0,0,1,0,1.085A1.143,1.143,0,0,1,116.417,66.914Zm-.054,5.806V67.836h1.411V72.72Z" transform="translate(-70.743 -60.511)" fill="#0072bb"/>
      <path id="Trazado_2408" data-name="Trazado 2408" d="M120.809,74.384V73.353a5.017,5.017,0,0,0,1.574.217,2.332,2.332,0,0,0,.651-.109.457.457,0,0,0,.217-.38.414.414,0,0,0-.109-.271l-.326-.163L122,72.484a1.684,1.684,0,0,1-.977-.488,1.415,1.415,0,0,1-.054-1.736,1.8,1.8,0,0,1,.76-.543,3.648,3.648,0,0,1,1.3-.217,3.094,3.094,0,0,1,.705.054,1.951,1.951,0,0,1,.6.109v1.031a5.259,5.259,0,0,0-1.248-.163c-.705,0-1.031.163-1.031.488,0,.109.054.163.109.271l.326.163.814.163a2.01,2.01,0,0,1,.977.434,1.515,1.515,0,0,1,.326.977,1.64,1.64,0,0,1-.271.868,1.522,1.522,0,0,1-.76.543,2.9,2.9,0,0,1-1.194.163A7.338,7.338,0,0,1,120.809,74.384Z" transform="translate(-72.801 -62.283)" fill="#0072bb"/>
      <path id="Trazado_2409" data-name="Trazado 2409" d="M131.781,71.98V73.12a4.779,4.779,0,0,1-.922.109,1.787,1.787,0,0,1-1.357-.434,2.125,2.125,0,0,1-.488-1.411V69.376H128.2V68.236h.814l.271-1.736h1.194v1.736h1.3v1.139h-1.3v1.736a1.846,1.846,0,0,0,.054.543.654.654,0,0,0,.271.271,1.585,1.585,0,0,0,.488.109C131.456,72.035,131.618,71.98,131.781,71.98Z" transform="translate(-76.231 -60.911)" fill="#0072bb"/>
      <path id="Trazado_2410" data-name="Trazado 2410" d="M136.054,69.554h1.139l.109.651h.054a1.308,1.308,0,0,1,.543-.543,1.733,1.733,0,0,1,.76-.163.923.923,0,0,1,.38.054v1.3a1.5,1.5,0,0,0-.488-.054,2.724,2.724,0,0,0-.651.109.976.976,0,0,0-.488.326v3.2H136V69.554Z" transform="translate(-79.799 -62.283)" fill="#0072bb"/>
      <path id="Trazado_2411" data-name="Trazado 2411" d="M143.374,74.229a1.6,1.6,0,0,1-.814-.868,2.539,2.539,0,0,1-.271-1.411,2.663,2.663,0,0,1,.6-1.9,2.426,2.426,0,0,1,4.178,1.9,4.076,4.076,0,0,1-.271,1.411,2.1,2.1,0,0,1-.814.868,3.118,3.118,0,0,1-2.6,0Zm1.791-.922a.844.844,0,0,0,.326-.434A2.249,2.249,0,0,0,145.6,72a4.749,4.749,0,0,0-.109-.868.844.844,0,0,0-.326-.434,1.149,1.149,0,0,0-1.031,0,.844.844,0,0,0-.326.434A2.249,2.249,0,0,0,143.7,72a2.39,2.39,0,0,0,.109.868.844.844,0,0,0,.326.434A1.149,1.149,0,0,0,145.164,73.307Z" transform="translate(-82.669 -62.238)" fill="#0072bb"/>
      <path id="Trazado_2412" data-name="Trazado 2412" d="M161.241,66.5H162.6v6.62h-1.465l-2.876-4.449V73.12H156.9V66.5h1.465l2.876,4.449Z" transform="translate(-89.358 -60.911)" fill="#0072bb"/>
      <path id="Trazado_2413" data-name="Trazado 2413" d="M172.264,69.746a1.2,1.2,0,0,1,.705.651,2.337,2.337,0,0,1,.217,1.194v2.93h-1.194l-.109-.488h-.054a1.378,1.378,0,0,1-.543.434,1.733,1.733,0,0,1-.76.163,2.458,2.458,0,0,1-.868-.163,1.188,1.188,0,0,1-.543-.488,1.766,1.766,0,0,1-.217-.76,1.366,1.366,0,0,1,.488-1.085,2.656,2.656,0,0,1,1.574-.434l.814-.054v-.054a.978.978,0,0,0-.109-.543.8.8,0,0,0-.326-.271,2.723,2.723,0,0,0-.651-.109,2.642,2.642,0,0,0-.651.054,2.862,2.862,0,0,0-.651.163V69.8c.271-.054.488-.109.76-.163a4.107,4.107,0,0,1,.814-.054A2.706,2.706,0,0,1,172.264,69.746Zm-.814,3.8a.874.874,0,0,0,.38-.217V72.4l-.651.054a1.094,1.094,0,0,0-.6.163.45.45,0,0,0-.163.434.616.616,0,0,0,.163.434.875.875,0,0,0,.488.163c.109-.054.271-.054.38-.109Z" transform="translate(-94.847 -62.312)" fill="#0072bb"/>
      <path id="Trazado_2414" data-name="Trazado 2414" d="M179.044,73.944a2.479,2.479,0,0,1-.651-1.9,2.451,2.451,0,0,1,.705-1.9,2.981,2.981,0,0,1,2.008-.651,7.354,7.354,0,0,1,1.085.109v1.139a4.778,4.778,0,0,0-.922-.109,2.177,2.177,0,0,0-.814.163.958.958,0,0,0-.488.434,2.178,2.178,0,0,0-.163.814,1.367,1.367,0,0,0,.326,1.085,1.266,1.266,0,0,0,.977.326,1.5,1.5,0,0,0,.488-.054,2.388,2.388,0,0,0,.543-.109v1.139a3.165,3.165,0,0,1-1.248.163A2.494,2.494,0,0,1,179.044,73.944Z" transform="translate(-99.185 -62.277)" fill="#0072bb"/>
      <path id="Trazado_2415" data-name="Trazado 2415" d="M186.817,66.914a.787.787,0,0,1,0-1.085,1.143,1.143,0,0,1,1.3,0,.787.787,0,0,1,0,1.085A1.144,1.144,0,0,1,186.817,66.914Zm-.054,5.806V67.836h1.411V72.72Z" transform="translate(-102.943 -60.511)" fill="#0072bb"/>
      <path id="Trazado_2416" data-name="Trazado 2416" d="M192.174,74.223a1.8,1.8,0,0,1-.814-.868,2.539,2.539,0,0,1-.271-1.411,2.663,2.663,0,0,1,.6-1.9,2.788,2.788,0,0,1,3.581,0,2.663,2.663,0,0,1,.6,1.9,4.076,4.076,0,0,1-.271,1.411,2.1,2.1,0,0,1-.814.868,3.118,3.118,0,0,1-2.6,0Zm1.791-.922a.844.844,0,0,0,.326-.434A4.216,4.216,0,0,0,194.4,72a4.749,4.749,0,0,0-.109-.868.844.844,0,0,0-.326-.434.631.631,0,0,0-.543-.109,1.605,1.605,0,0,0-.543.109.844.844,0,0,0-.326.434,4.216,4.216,0,0,0-.109.868,4.749,4.749,0,0,0,.109.868.844.844,0,0,0,.326.434.668.668,0,0,0,.543.109A.631.631,0,0,0,193.964,73.3Z" transform="translate(-104.989 -62.232)" fill="#0072bb"/>
      <path id="Trazado_2417" data-name="Trazado 2417" d="M201.4,69.509h1.194L202.7,70h.054a1.951,1.951,0,0,1,.651-.434,2.177,2.177,0,0,1,.814-.163,1.811,1.811,0,0,1,1.248.488,2.044,2.044,0,0,1,.434,1.465v3.039h-1.465V71.408a1.094,1.094,0,0,0-.163-.6.656.656,0,0,0-.543-.163,1.584,1.584,0,0,0-.488.109.729.729,0,0,0-.38.326v3.364h-1.411Z" transform="translate(-109.712 -62.238)" fill="#0072bb"/>
      <path id="Trazado_2418" data-name="Trazado 2418" d="M214.31,69.746a1.283,1.283,0,0,1,.76.651,2.337,2.337,0,0,1,.217,1.194v2.93h-1.194l-.109-.488h-.054a1.378,1.378,0,0,1-.543.434,1.733,1.733,0,0,1-.76.163,2.458,2.458,0,0,1-.868-.163,1.188,1.188,0,0,1-.543-.488,1.767,1.767,0,0,1-.217-.76,1.366,1.366,0,0,1,.488-1.085,2.552,2.552,0,0,1,1.574-.434l.814-.054v-.054a.978.978,0,0,0-.109-.543.8.8,0,0,0-.326-.271,2.723,2.723,0,0,0-.651-.109,2.642,2.642,0,0,0-.651.054,2.862,2.862,0,0,0-.651.163V69.8c.271-.054.488-.109.76-.163a4.107,4.107,0,0,1,.814-.054A2.569,2.569,0,0,1,214.31,69.746Zm-.814,3.8a.874.874,0,0,0,.38-.217V72.4l-.651.054a1.094,1.094,0,0,0-.6.163.45.45,0,0,0-.163.434.616.616,0,0,0,.163.434.875.875,0,0,0,.488.163c.109-.054.271-.054.38-.109Z" transform="translate(-114.103 -62.312)" fill="#0072bb"/>
      <path id="Trazado_2419" data-name="Trazado 2419" d="M220.8,72.571V65.3h1.411v7.271H220.8Z" transform="translate(-118.585 -60.362)" fill="#0072bb"/>
      <path id="Trazado_2420" data-name="Trazado 2420" d="M86.971,92.8a1.479,1.479,0,0,1-.705-.814,3.036,3.036,0,0,1-.271-1.357,2.842,2.842,0,0,1,.651-1.953,2.655,2.655,0,0,1,2.008-.651,1.846,1.846,0,0,1,.543.054V85.8h1.411v7.162H89.413l-.109-.488H89.25a2.124,2.124,0,0,1-.543.434,1.733,1.733,0,0,1-.76.163A2.031,2.031,0,0,1,86.971,92.8Zm1.845-.977a.973.973,0,0,0,.38-.271V89.11a1.846,1.846,0,0,0-.543-.054,1.147,1.147,0,0,0-.922.326,1.957,1.957,0,0,0-.326,1.085,1.561,1.561,0,0,0,.271,1.085.911.911,0,0,0,.76.326A.924.924,0,0,0,88.816,91.823Z" transform="translate(-56.924 -69.739)" fill="#0072bb"/>
      <path id="Trazado_2421" data-name="Trazado 2421" d="M100.484,92.818H97.5a1.094,1.094,0,0,0,.163.6.844.844,0,0,0,.434.326,4.218,4.218,0,0,0,.868.109,4.927,4.927,0,0,0,1.248-.163v1.085a6.736,6.736,0,0,1-1.465.163,3.6,3.6,0,0,1-1.519-.271,1.6,1.6,0,0,1-.868-.814,3.636,3.636,0,0,1,0-2.822,1.974,1.974,0,0,1,.76-.868,2.017,2.017,0,0,1,1.248-.271,1.91,1.91,0,0,1,1.574.651,2.992,2.992,0,0,1,.543,1.9Zm-2.767-1.791a1.783,1.783,0,0,0-.217.922h1.628a1.783,1.783,0,0,0-.217-.922.792.792,0,0,0-1.194,0Z" transform="translate(-61.538 -71.602)" fill="#0072bb"/>
      <path id="Trazado_2422" data-name="Trazado 2422" d="M109.8,92.917V85.7h1.465v7.217Z" transform="translate(-67.815 -69.693)" fill="#0072bb"/>
      <path id="Trazado_2423" data-name="Trazado 2423" d="M117.2,90.046a1.059,1.059,0,0,1,.705.651,2.337,2.337,0,0,1,.217,1.194v2.93h-1.194l-.109-.488h-.054a1.378,1.378,0,0,1-.543.434,1.733,1.733,0,0,1-.76.163,2.458,2.458,0,0,1-.868-.163,1.188,1.188,0,0,1-.543-.488,1.211,1.211,0,0,1-.163-.76,1.366,1.366,0,0,1,.488-1.085A2.181,2.181,0,0,1,115.9,92l.814-.054v-.054a.978.978,0,0,0-.109-.543.692.692,0,0,0-.38-.271,2.724,2.724,0,0,0-.651-.109,2.642,2.642,0,0,0-.651.054,2.861,2.861,0,0,0-.651.163V90.1c.271-.054.488-.109.76-.163a4.106,4.106,0,0,1,.814-.054A2.844,2.844,0,0,1,117.2,90.046Zm-.814,3.8a.875.875,0,0,0,.38-.217V92.7l-.651.054a1.094,1.094,0,0,0-.6.163.45.45,0,0,0-.163.434.616.616,0,0,0,.163.434.875.875,0,0,0,.488.163c.109-.054.271-.054.38-.109Z" transform="translate(-69.678 -71.597)" fill="#0072bb"/>
      <path id="Trazado_2424" data-name="Trazado 2424" d="M123.263,94.712V93.681a4.9,4.9,0,0,0,1.519.217,1.272,1.272,0,0,0,.651-.109.457.457,0,0,0,.217-.38.414.414,0,0,0-.109-.271l-.326-.163-.814-.163a1.683,1.683,0,0,1-.977-.488,1.415,1.415,0,0,1-.054-1.736,1.8,1.8,0,0,1,.76-.543,2.706,2.706,0,0,1,1.3-.163,3.337,3.337,0,0,1,.705.054,1.951,1.951,0,0,1,.6.109v1.031a5.26,5.26,0,0,0-1.248-.163c-.705,0-1.031.163-1.031.488a.414.414,0,0,0,.109.271l.326.163L125.7,92a2.47,2.47,0,0,1,1.031.434,1.515,1.515,0,0,1,.326.977,1.64,1.64,0,0,1-.271.868,1.522,1.522,0,0,1-.76.543,2.9,2.9,0,0,1-1.194.163A8.707,8.707,0,0,1,123.263,94.712Z" transform="translate(-73.899 -71.597)" fill="#0072bb"/>
      <path id="Trazado_2425" data-name="Trazado 2425" d="M136,86.81a12.619,12.619,0,0,1,2.008-.217,3.538,3.538,0,0,1,2.225.6,2.107,2.107,0,0,1,.76,1.791,2.222,2.222,0,0,1-.705,1.791,3.474,3.474,0,0,1-2.17.6h-.651v1.953H136Zm3.256,3.2a1.094,1.094,0,0,0,.326-.977,1.266,1.266,0,0,0-.326-.977,1.956,1.956,0,0,0-1.085-.326,2.642,2.642,0,0,0-.651.054v2.5a2.642,2.642,0,0,0,.651.054A1.956,1.956,0,0,0,139.256,90.012Z" transform="translate(-79.799 -70.098)" fill="#0072bb"/>
      <path id="Trazado_2426" data-name="Trazado 2426" d="M150.729,92.818h-2.984a1.094,1.094,0,0,0,.163.6.844.844,0,0,0,.434.326,4.218,4.218,0,0,0,.868.109,4.927,4.927,0,0,0,1.248-.163v1.085a6.629,6.629,0,0,1-1.411.163,3.6,3.6,0,0,1-1.519-.271,1.6,1.6,0,0,1-.868-.814,3.636,3.636,0,0,1,0-2.822,1.974,1.974,0,0,1,.76-.868,2.017,2.017,0,0,1,1.248-.271,1.91,1.91,0,0,1,1.574.651,2.992,2.992,0,0,1,.543,1.9Zm-2.767-1.791a1.783,1.783,0,0,0-.217.922h1.628a1.754,1.754,0,0,0-.163-.922.871.871,0,0,0-.6-.271A.813.813,0,0,0,147.962,91.028Z" transform="translate(-84.544 -71.602)" fill="#0072bb"/>
      <path id="Trazado_2427" data-name="Trazado 2427" d="M155.754,89.954h1.194l.109.651h.054a1.308,1.308,0,0,1,.543-.543,1.733,1.733,0,0,1,.76-.163.923.923,0,0,1,.38.054v1.3a1.5,1.5,0,0,0-.488-.054,2.723,2.723,0,0,0-.651.109.976.976,0,0,0-.488.326v3.2H155.7V89.954Z" transform="translate(-88.809 -71.614)" fill="#0072bb"/>
      <path id="Trazado_2428" data-name="Trazado 2428" d="M162.073,94.666V93.635a5.017,5.017,0,0,0,1.574.217,1.272,1.272,0,0,0,.651-.109.457.457,0,0,0,.217-.38.415.415,0,0,0-.109-.271l-.326-.163-.814-.163a2.017,2.017,0,0,1-1.031-.488,1.551,1.551,0,0,1-.054-1.791,1.8,1.8,0,0,1,.76-.543,2.706,2.706,0,0,1,1.3-.163,3.338,3.338,0,0,1,.705.054,1.951,1.951,0,0,1,.6.109v1.031a5.352,5.352,0,0,0-1.3-.163c-.651,0-1.031.163-1.031.488a.414.414,0,0,0,.109.271l.326.163.814.163a2.47,2.47,0,0,1,1.031.434,1.515,1.515,0,0,1,.326.977,1.64,1.64,0,0,1-.271.868,1.522,1.522,0,0,1-.76.543,2.9,2.9,0,0,1-1.194.163A5.138,5.138,0,0,1,162.073,94.666Z" transform="translate(-91.655 -71.551)" fill="#0072bb"/>
      <path id="Trazado_2429" data-name="Trazado 2429" d="M171.274,94.622a1.6,1.6,0,0,1-.814-.868,2.539,2.539,0,0,1-.271-1.411,2.663,2.663,0,0,1,.6-1.9,2.448,2.448,0,0,1,1.791-.651,2.071,2.071,0,0,1,1.736.651,2.479,2.479,0,0,1,.651,1.9,4.076,4.076,0,0,1-.271,1.411,2.1,2.1,0,0,1-.814.868,3.118,3.118,0,0,1-2.6,0Zm1.791-.977a.844.844,0,0,0,.326-.434,4.217,4.217,0,0,0,.109-.868,4.749,4.749,0,0,0-.109-.868.844.844,0,0,0-.326-.434,1.149,1.149,0,0,0-1.031,0,.844.844,0,0,0-.326.434,2.249,2.249,0,0,0-.109.868,2.389,2.389,0,0,0,.109.868.844.844,0,0,0,.326.434.631.631,0,0,0,.543.109A.553.553,0,0,0,173.064,93.646Z" transform="translate(-95.43 -71.561)" fill="#0072bb"/>
      <path id="Trazado_2430" data-name="Trazado 2430" d="M180.5,89.909h1.194l.109.488h.109a1.951,1.951,0,0,1,.651-.434,2.177,2.177,0,0,1,.814-.163,1.6,1.6,0,0,1,1.194.488A2.044,2.044,0,0,1,185,91.753v3.039h-1.411v-2.93a1.094,1.094,0,0,0-.163-.6.52.52,0,0,0-.543-.163,1.584,1.584,0,0,0-.488.109.729.729,0,0,0-.38.326v3.256h-1.411V89.909Z" transform="translate(-100.153 -71.568)" fill="#0072bb"/>
      <path id="Trazado_2431" data-name="Trazado 2431" d="M193.364,90.046a1.2,1.2,0,0,1,.705.651,2.336,2.336,0,0,1,.217,1.194v2.93h-1.194l-.109-.488h-.054a1.378,1.378,0,0,1-.543.434,1.733,1.733,0,0,1-.76.163,2.458,2.458,0,0,1-.868-.163,1.188,1.188,0,0,1-.543-.488,1.766,1.766,0,0,1-.217-.76,1.366,1.366,0,0,1,.488-1.085A2.245,2.245,0,0,1,192.062,92l.814-.054v-.054a.978.978,0,0,0-.109-.543.8.8,0,0,0-.326-.271,2.724,2.724,0,0,0-.651-.109,2.642,2.642,0,0,0-.651.054,2.862,2.862,0,0,0-.651.163V90.1c.271-.054.488-.109.76-.163a4.107,4.107,0,0,1,.814-.054A2.706,2.706,0,0,1,193.364,90.046Zm-.814,3.8a.875.875,0,0,0,.38-.217V92.7l-.651.054a1.094,1.094,0,0,0-.6.163.659.659,0,0,0,0,.868.875.875,0,0,0,.488.163c.109-.054.271-.054.38-.109Z" transform="translate(-104.498 -71.597)" fill="#0072bb"/>
      <path id="Trazado_2432" data-name="Trazado 2432" d="M199.463,94.666V93.635a5.017,5.017,0,0,0,1.574.217,1.289,1.289,0,0,0,.651-.163.457.457,0,0,0,.217-.38.414.414,0,0,0-.109-.271l-.326-.163-.814-.163a2.017,2.017,0,0,1-1.031-.488,1.415,1.415,0,0,1-.054-1.736,1.8,1.8,0,0,1,.76-.543,2.705,2.705,0,0,1,1.3-.163,3.094,3.094,0,0,1,.705.054,1.95,1.95,0,0,1,.6.109v1.031a5.259,5.259,0,0,0-1.248-.163c-.705,0-1.031.163-1.031.488a.414.414,0,0,0,.109.271l.326.163.814.163a2.47,2.47,0,0,1,1.031.434,1.515,1.515,0,0,1,.326.977,1.64,1.64,0,0,1-.271.868,1.522,1.522,0,0,1-.76.543,2.9,2.9,0,0,1-1.194.163A5.018,5.018,0,0,1,199.463,94.666Z" transform="translate(-108.752 -71.551)" fill="#0072bb"/>
      <path id="Trazado_2433" data-name="Trazado 2433" d="M35.559,60.432A10.067,10.067,0,0,1,43.372,56.2a10.067,10.067,0,0,1,7.814,4.232,16.2,16.2,0,0,1,0,19.154,10.067,10.067,0,0,1-7.814,4.232,10,10,0,0,1-7.814-4.178,16.285,16.285,0,0,1,0-19.208h0m7.325-2.225a10.36,10.36,0,0,1,2.6.271,9.064,9.064,0,0,1,3.636,1.574l.109.109A8.553,8.553,0,0,0,43.318,57.5a7.541,7.541,0,0,0-3.256.76h2.822ZM51.24,71.23a7.355,7.355,0,0,1,.271-.76,8.733,8.733,0,0,0,.434-2.6,8.214,8.214,0,0,0-.109-1.628,7.6,7.6,0,0,0-.326-1.519c-.109-.271-.163-.543-.271-.76a7.381,7.381,0,0,0-1.3-2.062,8.3,8.3,0,0,0-1.682-1.411,8.675,8.675,0,0,0-3.418-1.248,7.7,7.7,0,0,0-2.225-.163H38.76c-.38.271-.705.543-1.031.814h4.884a12.7,12.7,0,0,1,2.062.163,8.142,8.142,0,0,1,3.147,1.139,4.981,4.981,0,0,1,1.519,1.3,6.266,6.266,0,0,1,1.139,1.791,9,9,0,0,1,.6,2.659v.922a9.373,9.373,0,0,1-.705,3.31l1.248,5.48a13.254,13.254,0,0,0,.543-1.3L51.24,71.23m1.574-4.5v.326a8.682,8.682,0,0,1-.217,2.659c-.109.488-.271,1.031-.434,1.519l.543,2.387c.163-.705.271-1.465.38-2.225v-.271c0-.38.054-.76.054-1.139a16.563,16.563,0,0,0-.326-3.256m-2.5,11.883H37.349V61.463h4.992a7.165,7.165,0,0,1,1.519.109,7.737,7.737,0,0,1,2.659.705,5.461,5.461,0,0,1,1.357.922,4.892,4.892,0,0,1,1.085,1.519,5.469,5.469,0,0,1,.488,1.845,10.455,10.455,0,0,1,.054,1.3,7.355,7.355,0,0,1-.434,2.116c0,.054-.434.977-.434.977s1.085,4.829,1.682,7.651m-.705-7.922a7.946,7.946,0,0,0,.651-2.767c0-.543,0-1.085-.054-1.628a10.241,10.241,0,0,0-.488-1.845A5.294,5.294,0,0,0,48.473,62.6a5.979,5.979,0,0,0-1.519-1.085,9.138,9.138,0,0,0-2.876-.814A8.213,8.213,0,0,0,42.45,60.6H37.024c-.109.163-.271.326-.38.488V78.935c.109.163.271.326.38.488h12.86A15.976,15.976,0,0,0,51.077,77.8c-.543-2.387-1.574-6.728-1.574-6.728a1.38,1.38,0,0,1,.109-.38M48.2,76.982H38.977V63.091h4.07a5.068,5.068,0,0,1,3.256.922,4.212,4.212,0,0,1,1.465,3.527,5.308,5.308,0,0,1-.488,2.225L46.791,70.8c-.054,0,.6,2.442,1.411,6.186m-.217-6.837a6.233,6.233,0,0,0,.543-2.6,6.009,6.009,0,0,0-.434-2.387,4.38,4.38,0,0,0-1.357-1.791h0a5.973,5.973,0,0,0-3.8-1.085H38.055V77.8H49.178L47.55,70.851ZM38.706,81.052h9.333c.38-.271.705-.543,1.031-.814H37.675c.326.271.651.543,1.031.814m4.666,1.574a7.165,7.165,0,0,0,3.364-.814H39.954a7.547,7.547,0,0,0,3.418.814m-3.31-6.62h2.225V71.068l.922-.054a4.525,4.525,0,0,1,.868,2.279l.488,2.713h2.279l-.705-3.093c-.217-1.085-.6-2.062-1.248-2.333a3.064,3.064,0,0,0,1.791-3.147c0-2.659-1.465-3.31-3.636-3.31H40.062Zm-5.1-12.317v12.7c.271.543.543,1.031.814,1.519V62.169a13.493,13.493,0,0,0-.814,1.519m-1.357,6.349a15.4,15.4,0,0,0,.651,4.4v-8.79a15.128,15.128,0,0,0-.651,4.4" transform="translate(-32.425 -56.2)" fill="#0072bb"/>
      <path id="Trazado_2434" data-name="Trazado 2434" d="M51.251,73.8H50.6v3.744c1.628-.109,2.225-.38,2.225-2.116-.054-1.357-.543-1.574-1.574-1.628" transform="translate(-40.738 -64.25)" fill="#0072bb"/>
    </g>
  </g>
</svg>
